<?xml version="1.0" encoding="utf-8"?>
<!-- Generator: Adobe Illustrator 24.1.2, SVG Export Plug-In . SVG Version: 6.00 Build 0)  -->
<svg version="1.2" baseProfile="tiny-ps" id="Layer_1" xmlns="http://www.w3.org/2000/svg" xmlns:xlink="http://www.w3.org/1999/xlink"
	viewBox="0 0 256 256" xml:space="preserve">
    <title>The Spaghetti Detective</title>
<g>
	<path fill="#FFFFFF" d="M256,256c-85.36,0-170.7,0-256,0C0,170.64,0,85.3,0,0c85.36,0,170.7,0,256,0C256,85.36,256,170.7,256,256z
		 M126.42,247.34c13.06-24.29,30.7-43.44,50.36-60.91c7.26-6.45,7.46-6.58,2.87-15.45c-2.07-4.01-1.88-7.02,1.92-9.25
		c8.43-4.96,16.79-10.12,25.58-14.35c6.93-3.33,14.47-5.38,22.32-8.21c-11.15-11.71-24.46-19.47-38.88-27.69
		c3.83-0.99,6.49-1.64,9.12-2.36c10.63-2.93,21.17-6.15,30.13-12.89c10.32-7.76,10.43-17.01-0.09-24.43
		c-16.54-11.67-36.01-14.57-55.85-18.14c0.78,4.95,1.44,9.16,2.32,14.77c-10.95,1.89-21.62,4.33-32.43,5.47
		c-21.04,2.23-41.9,0.77-62.39-4.87c-3.44-0.95-5.29-2.11-3.97-6.13c0.89-2.73,0.98-5.71,1.57-9.5c-9.13,1.98-17.43,3.57-25.62,5.59
		c-11.04,2.72-21.78,6.36-30.97,13.36c-9.36,7.14-9.51,16.01-0.17,23.09c4.06,3.08,8.64,5.76,13.37,7.63
		c8.3,3.26,16.9,5.75,25.96,8.76c-13.62,7.92-27.15,15.56-38.3,27.54c2.37,0.76,3.93,1.24,5.47,1.75
		c13.62,4.49,27.14,9.23,38.96,17.68c8.41,6.01,8.37,6.07,3.96,15.13c-0.44,0.9-0.76,1.88-1.32,2.69c-1.63,2.37-1.25,3.94,1.14,5.78
		c4.74,3.65,9.3,7.58,13.68,11.67C101.58,209.39,116.14,226.19,126.42,247.34z M79.66,53.16c31.55,8.21,62.32,8.34,93.56-0.12
		c-1.71-9.26-3.71-17.85-4.76-26.55c-0.76-6.32-3.9-10.52-9.43-12.27c-7.86-2.5-15.94-4.78-24.1-5.79
		c-13.35-1.65-26.73-0.53-39.18,4.95c-3.97,1.75-8.94,5.1-10.04,8.75C82.77,31.9,81.65,42.24,79.66,53.16z"/>
	<path d="M126.42,247.34c-10.28-21.15-24.85-37.95-41.25-53.28c-4.38-4.09-8.93-8.01-13.68-11.67c-2.39-1.84-2.77-3.41-1.14-5.78
		c0.56-0.81,0.88-1.79,1.32-2.69c4.41-9.06,4.45-9.12-3.96-15.13c-11.82-8.45-25.34-13.18-38.96-17.68
		c-1.54-0.51-3.1-0.99-5.47-1.75c11.15-11.98,24.68-19.62,38.3-27.54c-9.06-3.01-17.66-5.5-25.96-8.76
		c-4.74-1.86-9.31-4.55-13.37-7.63c-9.34-7.08-9.19-15.95,0.17-23.09c9.19-7,19.93-10.64,30.97-13.36
		c8.19-2.02,16.49-3.62,25.62-5.59c-0.59,3.79-0.68,6.78-1.57,9.5c-1.31,4.02,0.53,5.19,3.97,6.13c20.5,5.64,41.36,7.1,62.39,4.87
		c10.81-1.15,21.49-3.58,32.43-5.47c-0.88-5.61-1.55-9.82-2.32-14.77c19.84,3.57,39.31,6.47,55.85,18.14
		c10.51,7.42,10.41,16.67,0.09,24.43c-8.96,6.74-19.5,9.96-30.13,12.89c-2.63,0.73-5.29,1.37-9.12,2.36
		c14.42,8.21,27.73,15.97,38.88,27.69c-7.85,2.83-15.39,4.88-22.32,8.21c-8.8,4.23-17.15,9.4-25.58,14.35
		c-3.8,2.23-3.99,5.24-1.92,9.25c4.58,8.87,4.38,9-2.87,15.45C157.12,203.9,139.48,223.06,126.42,247.34z M86.64,116.35
		c7.57,12.92,22.88,14.74,29.52,4.56c-4.87-0.53-9.67-0.89-14.41-1.63C96.87,118.54,92.05,117.42,86.64,116.35z M136.59,121.3
		c8.16,9.95,23.12,7.5,29.14-4.53C156.1,118.27,146.36,119.79,136.59,121.3z"/>
	<path d="M79.66,53.16c1.99-10.92,3.11-21.26,6.06-31.04c1.1-3.65,6.07-7,10.04-8.75c12.45-5.48,25.83-6.6,39.18-4.95
		c8.16,1.01,16.24,3.28,24.1,5.79c5.53,1.76,8.67,5.96,9.43,12.27c1.04,8.7,3.05,17.29,4.76,26.55
		C141.98,61.5,111.22,61.37,79.66,53.16z"/>
	<path fill="#FFFFFF" d="M86.64,116.35c5.41,1.07,10.23,2.18,15.11,2.94c4.74,0.73,9.55,1.09,14.41,1.63
		C109.52,131.09,94.21,129.27,86.64,116.35z"/>
	<path fill="#FFFFFF" d="M136.59,121.3c9.77-1.52,19.52-3.03,29.14-4.53C159.7,128.81,144.75,131.25,136.59,121.3z"/>
</g>
</svg>
