<svg width="499" height="606" viewBox="0 0 499 606" fill="none" xmlns="http://www.w3.org/2000/svg">
<path d="M0 27C0 12.0883 12.0883 0 27 0H472C486.912 0 499 12.0883 499 27V512C499 563.915 456.915 606 405 606H27C12.0883 606 0 593.912 0 579V27Z" fill="#F6F9FC"/>
<mask id="mask0" mask-type="alpha" maskUnits="userSpaceOnUse" x="0" y="0" width="499" height="606">
<path d="M0 27C0 12.0883 12.0883 0 27 0H472C486.912 0 499 12.0883 499 27V512C499 563.915 456.915 606 405 606H27C12.0883 606 0 593.912 0 579V27Z" fill="#F6F9FC"/>
</mask>
<g mask="url(#mask0)">
<path d="M161.456 402.107C161.456 402.107 151.555 407.869 144.85 409.47C138.145 411.071 125.369 417.794 114.509 420.032C103.649 422.27 91.1978 427.395 79.6994 427.395C68.2011 427.395 42.9718 428.675 27.012 430.915C11.0523 433.155 1 440.4 1 440.4V606H499V456.167C499 456.167 485.165 447.653 461.751 444.664C438.337 441.676 440.034 432.714 411.078 434.422C382.123 436.129 374.457 430.579 364.662 425.03C354.868 419.481 332.724 419.055 316.969 416.067C301.214 413.079 161.456 402.107 161.456 402.107Z" fill="#774961"/>
<path d="M361.893 260.92C362.107 242.995 363.171 210.342 363.171 210.342L359.551 151.228C359.551 151.228 335.066 102.996 314.835 88.4847C294.603 73.9734 242.234 64.7963 227.969 68.6411C213.703 72.486 146.635 92.113 134.924 121.35C123.214 150.587 119.952 188.717 119.952 188.717C119.952 188.717 102.493 188.005 96.5307 203.086C90.5683 218.167 97.2376 232.389 101.496 242.078C105.755 251.766 109.729 247.207 115.976 270.247C122.222 293.288 139.821 318.762 139.821 318.762C139.821 318.762 163.669 345.794 163.101 353.478C162.532 361.162 163.243 377.094 163.101 380.073C162.958 383.051 163.811 396.719 162.958 398.997C162.106 401.274 150.609 407.247 162.25 413.651C173.89 420.054 199.226 438.69 217.111 438.479C234.996 438.268 246.919 436.345 256.075 441.68C265.231 447.014 281.837 454.698 336.556 424.18C336.556 424.18 328.679 418.631 326.975 405.4C325.272 392.169 323.782 374.028 325.059 366.346C325.283 365.197 325.661 364.083 326.181 363.035C329.57 360.049 333.776 356.042 338.426 351.584C348.327 337.652 352.679 324.721 356.585 309.277C362.333 286.55 362.333 263.496 362.333 263.496C362.333 263.496 361.977 266.06 361.266 270.207C361.647 266.828 361.861 263.692 361.893 260.92Z" fill="#FAB790"/>
<path opacity="0.4" d="M361.893 260.92C362.107 242.995 363.171 210.342 363.171 210.342L359.551 151.228C359.551 151.228 335.066 102.996 314.835 88.4847C294.603 73.9734 242.234 64.7963 227.969 68.6411C213.703 72.486 146.635 92.113 134.924 121.35C123.214 150.587 119.952 188.717 119.952 188.717C119.952 188.717 102.493 188.005 96.5307 203.086C90.5683 218.167 97.2376 232.389 101.496 242.078C105.755 251.766 109.729 247.207 115.976 270.247C122.222 293.288 139.821 318.762 139.821 318.762C139.821 318.762 163.669 345.794 163.101 353.478C162.532 361.162 163.243 377.094 163.101 380.073C162.958 383.051 163.811 396.719 162.958 398.997C162.106 401.274 150.609 407.247 162.25 413.651C173.89 420.054 199.226 438.69 217.111 438.479C234.996 438.268 246.919 436.345 256.075 441.68C265.231 447.014 281.837 454.698 336.556 424.18C336.556 424.18 328.679 418.631 326.975 405.4C325.272 392.169 323.782 374.028 325.059 366.346C325.283 365.197 325.661 364.083 326.181 363.035C329.57 360.049 333.776 356.042 338.426 351.584C348.327 337.652 352.679 324.721 356.585 309.277C362.333 286.55 362.333 263.496 362.333 263.496C362.333 263.496 361.977 266.06 361.266 270.207C361.647 266.828 361.861 263.692 361.893 260.92ZM225.556 262.415C217.465 263.98 206.962 270.097 193.051 278.064C179.14 286.031 180.417 265.546 177.296 256.724C174.174 247.902 179.311 240.197 190.923 245.484C204.69 251.752 215.619 250.613 228.537 253.025C241.455 255.438 233.647 260.85 225.556 262.415ZM287.151 275.112C283.85 280.661 279.699 280.876 274.263 275.433C268.828 269.991 265.428 270.304 254.462 270.418C243.496 270.532 250.103 262.734 258.721 259.321C267.338 255.907 266.173 252.482 267.024 243.102C267.875 233.721 268.919 230.52 275.114 231.576C280.118 232.431 279.693 238.193 281.503 245.235C283.313 252.277 281.822 252.704 288.741 262.734C295.661 272.764 290.46 269.563 287.164 275.112H287.151ZM288.144 186.441C280.753 191.705 272.531 197.537 267.988 186.724C263.445 175.911 254.93 176.766 231.651 168.514C208.372 160.262 226.327 150.515 237.763 154.144C248.977 157.702 259.481 140.628 260.049 153.574C260.618 166.52 283.611 153.289 299.66 144.894C315.708 136.5 326.761 155.139 330.741 166.662C334.721 178.185 336.986 182.171 323.217 178.755C309.448 175.34 295.535 181.175 288.154 186.441H288.144ZM348.045 280.767C342.509 291.652 335.377 276.073 323.773 268.817C312.168 261.56 318.879 258.424 324.411 259.533C334.524 261.56 340.805 259.427 347.512 258.574C354.219 257.721 353.59 269.884 348.054 280.767H348.045Z" fill="#D58F6F"/>
<path opacity="0.6" d="M361.893 260.92C362.107 242.995 363.171 210.342 363.171 210.342L359.551 151.228C359.551 151.228 335.066 102.996 314.835 88.4847C294.603 73.9734 242.234 64.7963 227.969 68.6411C213.703 72.486 146.635 92.113 134.924 121.35C123.214 150.587 119.952 188.717 119.952 188.717C119.952 188.717 102.493 188.005 96.5307 203.086C90.5683 218.167 97.2376 232.389 101.496 242.078C105.755 251.766 109.729 247.207 115.976 270.247C122.222 293.288 139.821 318.762 139.821 318.762C139.821 318.762 163.669 345.794 163.101 353.478C162.532 361.162 163.243 377.094 163.101 380.073C162.958 383.051 163.811 396.719 162.958 398.997C162.106 401.274 150.609 407.247 162.25 413.651C170.778 418.341 186.66 429.607 201.578 435.202C194.692 430.721 186.291 424.957 181.767 420.765C173.25 412.868 167.714 415.216 169.417 403.691C171.121 392.166 171.333 396.221 171.333 382.776C171.333 369.33 179.212 370.4 188.368 386.404C197.524 402.409 205.188 403.263 213.917 403.691C222.647 404.118 240.957 426.526 272.469 413.508C303.981 400.49 318.885 377.225 318.885 389.392C318.885 401.559 320.092 411.09 321.369 416.354C322.647 421.618 319.664 423.751 310.155 428.162C300.647 432.573 290.007 436.98 275.378 435.84C260.749 434.7 260.616 437.69 247.273 433.561C236.421 430.206 227.635 435.32 220.075 438.418C236.327 438.063 247.435 436.636 256.084 441.67C265.238 447.006 281.846 454.688 336.565 424.171C336.565 424.171 328.689 418.622 326.985 405.391C325.281 392.16 323.791 374.019 325.069 366.336C325.293 365.187 325.67 364.073 326.191 363.025C329.58 360.039 333.785 356.033 338.436 351.574C348.337 337.642 352.688 324.712 356.594 309.268C362.342 286.54 362.342 263.486 362.342 263.486C362.342 263.486 361.986 266.051 361.275 270.198C361.647 266.828 361.861 263.692 361.893 260.92ZM168.494 168.372C169.772 162.253 170.34 154.571 180.417 137.788C190.494 121.004 203.304 126.056 213.917 128.67C223.712 131.088 236.628 129.097 249.26 126.39C261.891 123.683 267.145 118.565 270.41 125.11C273.676 131.654 275.378 135.637 266.719 148.868C258.059 162.099 279.921 146.45 290.85 141.044C301.78 135.637 298.373 120.271 304.761 123.402C311.15 126.532 321.227 130.943 326.761 144.317C332.295 157.69 327.188 135.78 337.691 144.887C348.194 153.994 353.873 185.577 355.152 192.265C356.431 198.954 354.015 201.513 347.486 200.375C340.957 199.237 343.654 195.109 341.383 188.992C339.113 182.876 336.834 183.586 325.484 183.728C314.133 183.871 297.814 187.718 287.869 194.541C277.925 201.365 273.818 198.53 267.287 196.532C260.756 194.534 266.15 192.264 259.196 184.866C252.243 177.469 241.737 180.598 224.989 172.488C208.241 164.379 206.82 172.914 198.16 174.768C189.501 176.622 188.366 177.186 178.289 177.329C168.212 177.471 167.217 174.489 168.494 168.372ZM358.7 268.604C358.273 284.823 352.525 299.975 345.287 311.285C338.049 322.595 338.898 312.033 340.17 301.255C341.442 290.476 331.547 285.678 324.095 276.286C316.643 266.894 314.833 269.672 316.751 274.472C318.669 279.272 318.879 280.342 314.727 280.448C310.574 280.555 306.033 281.765 309.014 278.929C311.996 276.092 309.865 267.261 304.047 261.997C298.229 256.733 291.698 255.88 299.22 265.696C306.742 275.511 302.063 275.513 299.078 275.656C296.093 275.798 295.53 276.225 287.864 281.204C280.197 286.183 277.218 285.763 271.966 280.777C266.715 275.79 257.489 275.078 248.829 274.66C240.17 274.242 242.575 268.684 246.275 262.567C249.974 256.45 250.823 255.025 242.158 259.864C233.493 264.702 233.357 267.546 233.925 272.667C234.494 277.789 230.235 277.506 223.848 278.501C217.462 279.497 210.08 282.057 217.026 274.945C223.972 267.833 217.594 269.246 207.373 275.798C197.152 282.35 188.935 289.589 188.51 300.966C188.085 312.343 180.986 299.257 170.767 288.303C160.548 277.35 157.707 260.417 157.423 252.165C157.138 243.913 157.707 222.72 157.707 212.044C157.707 201.368 163.722 202.89 171.333 203.828C177.398 204.575 175.486 214.712 175.91 224.535C176.335 234.357 185.172 235.632 193.477 238.727C201.782 241.821 203.484 236.591 198.905 234.458C194.326 232.325 188.792 227.095 188.154 222.08C187.515 217.065 187.941 205.327 194.867 198.498C201.792 191.669 221.8 193.589 233.192 199.991C244.584 206.393 229.146 205.54 221.481 205.327C213.817 205.115 207.646 206.074 197.103 212.476C186.56 218.877 190.396 222.508 197.634 220.587C204.871 218.667 217.861 218.986 224.462 219.519C231.064 220.053 240.75 218.773 231.7 225.068C222.651 231.364 213.506 227.523 209.558 226.455C205.611 225.387 194.108 218.142 205.4 227.523C216.692 236.903 232.333 232.857 240.106 227.842C247.878 222.827 256.714 217.172 248.623 228.482C240.532 239.792 229.993 237.765 220.092 236.698C210.191 235.63 192.518 235.632 210.616 241.715C228.713 247.797 241.489 247.902 251.284 244.167C261.078 240.433 261.897 232.04 268.494 223.93C275.092 215.821 277.296 218.232 279.07 222.863C280.844 227.494 286.45 238.086 293.051 248.614C299.652 259.142 309.871 256.154 320.589 255.586C331.306 255.018 331.943 252.736 318.6 251.388C305.258 250.039 300.785 241.358 297.664 235.811C294.542 230.264 297.309 231.821 304.265 237.163C311.22 242.505 323.57 240.364 330.311 236.878C337.052 233.392 330.88 233.89 326.833 234.887C322.787 235.885 317.75 235.385 312.284 232.895C306.818 230.404 310.049 228.698 330.914 229.872C351.778 231.046 344.434 219.949 335.172 215.572C325.91 211.195 322.823 207.356 341.773 210.772C360.724 214.187 358.167 226.029 354.868 233.499C351.568 240.968 350.183 246.517 342.2 247.797C334.217 249.078 324.847 252.926 335.066 253.986C345.285 255.046 349.332 254.841 354.761 252.387C360.191 249.933 359.126 252.385 358.7 268.604Z" fill="#BC7A61"/>
<path d="M307.743 224.839C307.743 224.839 300.787 225.158 300.609 222.559C300.431 219.96 304.619 218.156 309.765 218.57C314.91 218.984 319.844 219.41 324.315 220.973C328.786 222.536 331.41 224.622 327.472 224.825C323.534 225.029 321.44 225 321.44 225C321.44 225 309.41 224.869 307.743 224.839Z" fill="#D1D3D4"/>
<path d="M224.491 302.75C215.823 302.75 205.258 306.236 216.757 312.21C228.255 318.185 240.46 337.236 267.856 336.398C302.704 335.331 302.597 321.068 309.835 317.368C317.073 313.667 321.794 307.516 310.156 306.379C298.517 305.241 289.858 302.678 278.359 304.813C266.861 306.948 270.767 301.964 254.514 302.11C238.26 302.256 234.57 302.75 224.491 302.75Z" fill="#E2866D"/>
<path d="M310.156 306.379C298.517 305.239 289.858 302.678 278.359 304.813C266.861 306.948 270.767 301.964 254.514 302.11C238.26 302.256 234.57 302.75 224.491 302.75C215.823 302.75 205.258 306.236 216.757 312.21C226.127 317.081 235.971 330.637 254.123 335.029C252.277 331.978 250.119 327.284 254.656 327.719C261.327 328.359 274.457 329.569 283.115 327.647C290.531 326.004 291.126 328.897 288.738 333.291C303.141 328.608 304.485 320.103 309.835 317.368C317.075 313.669 321.794 307.516 310.156 306.379Z" fill="#BC6150"/>
<path d="M216.472 216.479L203.75 216.099C203.75 216.099 200.717 214.178 205.054 213.439C209.39 212.7 214.183 213.2 219.533 212.398C224.883 211.597 232.734 212.292 234.756 213.493C236.778 214.693 238.616 218.082 238.855 218.722C239.094 219.362 238.535 219.708 236.539 218.882C234.543 218.055 232.18 217.014 230.02 216.72C227.859 216.426 221.929 217.52 216.472 216.479Z" fill="#D1D3D4"/>
<path d="M234.756 213.49C232.733 212.29 224.882 211.591 219.533 212.396C214.185 213.202 209.392 212.691 205.054 213.437C202.112 213.944 202.561 214.991 203.158 215.61C208.74 213.853 216.008 214.499 221.427 214.345C227.016 214.184 235.798 214.29 238.141 219.199C238.168 219.255 238.2 219.309 238.235 219.36C238.847 219.398 239.007 219.115 238.859 218.72C238.616 218.08 236.78 214.691 234.756 213.49Z" fill="#8D8F90"/>
<path d="M324.311 220.958C319.84 219.394 314.907 218.959 309.761 218.555C304.616 218.15 300.429 219.943 300.605 222.544C300.61 222.59 300.618 222.637 300.628 222.682C309.109 221.385 317.661 221.007 328.788 224.599C330.599 224.006 328.13 222.293 324.311 220.958Z" fill="#8D8F90"/>
<path d="M230.973 212.478C227.66 211.991 223.055 211.87 219.533 212.396C215.792 212.966 212.332 212.878 209.096 213.034C208.902 214.099 208.863 215.187 208.981 216.263L216.473 216.484C221.929 217.525 227.863 216.431 230.02 216.723C230.378 216.773 230.742 216.843 231.109 216.928C231.363 215.453 231.317 213.941 230.973 212.483V212.478Z" fill="black"/>
<path d="M325.827 224.886C326.274 223.949 326.557 222.942 326.663 221.91C325.97 221.585 325.174 221.262 324.307 220.96C319.837 219.396 314.903 218.961 309.758 218.557C309.439 218.53 309.123 218.515 308.81 218.505C308.225 220.621 308.419 222.878 309.358 224.862C313.122 224.905 321.431 224.987 321.431 224.987C321.431 224.987 322.956 225.006 325.827 224.886Z" fill="black"/>
<path d="M227.88 215.145C228.321 215.145 228.678 214.787 228.678 214.345C228.678 213.903 228.321 213.545 227.88 213.545C227.439 213.545 227.082 213.903 227.082 214.345C227.082 214.787 227.439 215.145 227.88 215.145Z" fill="white"/>
<path d="M323.29 222.381C323.29 222.526 323.247 222.669 323.166 222.79C323.085 222.911 322.97 223.006 322.836 223.062C322.701 223.117 322.553 223.132 322.411 223.103C322.268 223.075 322.137 223.005 322.034 222.902C321.931 222.799 321.861 222.667 321.833 222.524C321.805 222.381 321.819 222.233 321.875 222.099C321.93 221.964 322.025 221.849 322.146 221.768C322.267 221.687 322.409 221.644 322.554 221.644C322.749 221.644 322.936 221.721 323.074 221.859C323.212 221.998 323.29 222.185 323.29 222.381Z" fill="white"/>
<path d="M305.345 218.773C302.438 219.343 300.488 220.754 300.607 222.551C300.751 224.66 305.328 224.854 307.074 224.852C305.182 223.005 305.101 220.5 305.345 218.773Z" fill="#C1797B"/>
<path d="M237.197 227.132C235.935 227.98 234.592 228.701 233.188 229.284C231.782 229.881 230.333 230.37 228.854 230.747C225.873 231.523 222.788 231.819 219.715 231.624C216.632 231.428 213.609 230.683 210.787 229.425C207.992 228.183 205.446 226.442 203.274 224.286C205.758 225.941 208.426 227.302 211.223 228.342C213.99 229.337 216.882 229.94 219.816 230.133C222.757 230.314 225.71 230.139 228.609 229.611C230.072 229.347 231.52 229.009 232.948 228.596C234.391 228.19 235.809 227.701 237.197 227.132Z" fill="#A46047"/>
<path opacity="0.65" d="M194.186 219.448C193.815 219.739 193.393 219.961 192.943 220.103C192.498 220.252 192.039 220.354 191.573 220.407C190.645 220.509 189.707 220.464 188.793 220.274C187.888 220.09 187.012 219.783 186.19 219.362C185.364 218.95 184.613 218.403 183.967 217.742C184.896 217.865 185.749 218.072 186.596 218.258C187.443 218.445 188.264 218.638 189.088 218.811C189.913 218.984 190.735 219.125 191.575 219.237C192.44 219.359 193.312 219.43 194.186 219.448Z" fill="#A46047"/>
<path opacity="0.65" d="M198.445 221.155C197.141 221.59 195.886 222.02 194.654 222.485C193.437 222.941 192.245 223.465 191.086 224.054C189.94 224.637 188.848 225.321 187.824 226.098C186.779 226.91 185.818 227.825 184.958 228.832C185.344 227.476 186.057 226.237 187.034 225.223C188.005 224.199 189.146 223.351 190.405 222.717C191.646 222.085 192.967 221.624 194.332 221.349C195.684 221.062 197.073 220.996 198.445 221.155Z" fill="#A46047"/>
<path d="M303.13 232.538C304.293 233.174 305.488 233.749 306.71 234.263C307.923 234.776 309.151 235.236 310.396 235.629C312.868 236.425 315.424 236.929 318.013 237.131C320.593 237.323 323.187 237.151 325.719 236.62C328.29 236.056 330.785 235.187 333.15 234.031C331.031 235.722 328.606 236.988 326.009 237.758C323.383 238.538 320.636 238.83 317.905 238.621C315.186 238.41 312.517 237.768 309.998 236.721C308.748 236.207 307.538 235.6 306.378 234.905C305.81 234.557 305.241 234.193 304.693 233.796C304.146 233.41 303.624 232.99 303.13 232.538Z" fill="#A46047"/>
<path opacity="0.65" d="M338.904 227.735C339.57 228.188 340.262 228.602 340.976 228.974C342.288 229.662 343.731 230.062 345.21 230.148C345.968 230.205 346.762 230.178 347.634 230.19C346.966 230.76 346.164 231.149 345.303 231.318C344.418 231.499 343.504 231.467 342.634 231.226C341.764 230.984 340.964 230.539 340.299 229.928C339.975 229.629 339.688 229.293 339.444 228.926C339.198 228.563 339.015 228.16 338.904 227.735Z" fill="#A46047"/>
<path opacity="0.65" d="M337.621 232.01C338.818 231.956 340.016 232.102 341.165 232.443C342.334 232.77 343.446 233.272 344.465 233.932C345.519 234.603 346.41 235.501 347.073 236.562C347.723 237.635 348.045 238.929 347.842 240.12C347.457 239.063 346.875 238.09 346.125 237.253C345.391 236.458 344.558 235.762 343.646 235.181C342.711 234.577 341.742 234.027 340.744 233.535C339.732 233.019 338.694 232.532 337.621 232.01Z" fill="#A46047"/>
<path opacity="0.65" d="M202.207 285.891C201.372 287.639 200.63 289.43 199.984 291.258C199.341 293.038 198.879 294.878 198.606 296.751C198.333 298.593 198.39 300.469 198.777 302.291C199.217 304.15 200.024 305.903 201.152 307.444C200.35 306.847 199.644 306.131 199.057 305.321C198.46 304.493 197.986 303.582 197.651 302.617C196.971 300.676 196.855 298.562 197.13 296.552C197.419 294.556 198.018 292.618 198.906 290.807C199.338 289.912 199.831 289.047 200.38 288.218C200.655 287.806 200.949 287.401 201.248 287.012C201.546 286.62 201.867 286.246 202.207 285.891Z" fill="#A46047"/>
<path opacity="0.65" d="M329.531 289.518C329.9 289.768 330.249 290.048 330.573 290.355C330.901 290.661 331.212 290.983 331.505 291.322C333.297 293.406 334.446 295.967 334.813 298.693C335.28 302.337 334.299 306.019 332.082 308.945C332.623 307.3 333.027 305.613 333.291 303.902C333.53 302.241 333.544 300.556 333.331 298.892C333.108 297.229 332.666 295.602 332.015 294.056C331.348 292.461 330.514 290.941 329.527 289.523L329.531 289.518Z" fill="#A46047"/>
<path d="M225.131 305.381C220.162 305.381 210.225 306.947 219.878 310.51C229.53 314.074 244.434 326.872 268.706 326.446C292.979 326.021 298.232 320.043 306.042 316.202C313.853 312.361 316.688 308.092 306.611 308.52C296.534 308.947 294.121 312.509 273.397 312.218C252.673 311.927 238.898 306.096 225.131 305.381Z" fill="#25100B"/>
<path d="M273.392 312.211C253.549 311.939 240.083 306.582 226.888 305.503C226.758 307.822 226.646 311.012 226.778 313.806C236.285 318.903 249.589 326.775 268.707 326.439C288.588 326.089 295.708 322.016 301.922 318.445C302.127 315.839 302.267 312.317 301.972 308.972C295.164 310.045 290.564 312.446 273.392 312.211Z" fill="white"/>
<path d="M296.241 321.463C298.378 320.479 300.186 319.442 301.926 318.445C302.131 315.839 302.271 312.317 301.975 308.971C295.168 310.045 290.568 312.446 273.395 312.201C253.552 311.929 240.087 306.572 226.892 305.493C226.761 307.813 226.65 311.002 226.782 313.796C229.047 315.01 231.52 316.382 234.253 317.763L234.361 310.21C234.361 310.21 246.923 312.983 253.842 314.579C260.762 316.175 275.88 318.42 284.924 316.393C293.968 314.366 296.847 312.659 296.529 315.538C296.358 317.1 296.278 319.537 296.241 321.463Z" fill="#BCBEC0"/>
<path d="M264.005 330.439C259.633 329.978 260.173 331.769 263.527 332.253C266.882 332.738 274.759 335.829 278.856 332.681C282.954 329.533 279.603 329.746 276.622 329.959C273.64 330.171 271.086 331.186 264.005 330.439Z" fill="#EDA08E"/>
<path d="M219.315 217.172C219.315 217.172 206.363 216.425 204.127 216.745C204.127 216.745 199.656 216.745 196.569 219.947C196.569 219.947 198.803 212.797 207.641 212.691C216.478 212.584 230.384 209.205 235.283 213.331C240.182 217.457 243.375 223.006 238.194 220.658C233.012 218.31 231.665 216.745 226.129 216.959C228.575 216.142 231.233 216.237 233.615 217.225C237.661 218.88 238.194 218.025 236.49 215.998C234.786 213.971 231.373 212.579 225.471 212.744C219.569 212.909 212.377 214.237 208.279 214.024C204.182 213.812 203.92 215.251 203.92 215.251C203.92 215.251 204.478 214.478 209.775 215.305C215.072 216.131 216.241 215.172 219.315 217.172Z" fill="#231C17"/>
<path d="M195.606 216.213C196.087 215.296 196.692 214.45 197.405 213.699C198.117 212.931 198.906 212.239 199.76 211.633C201.501 210.41 203.451 209.52 205.514 209.007C206.547 208.747 207.599 208.571 208.66 208.481L210.161 208.35L211.657 208.206L214.67 207.911C215.678 207.818 216.69 207.735 217.702 207.655C218.714 207.575 219.738 207.528 220.761 207.484C221.785 207.44 222.81 207.425 223.839 207.438C225.913 207.442 227.983 207.607 230.031 207.932C232.083 208.284 234.151 208.836 236.026 209.853C236.965 210.351 237.821 210.992 238.565 211.752C238.928 212.133 239.254 212.55 239.535 212.995C239.808 213.434 240.034 213.902 240.208 214.389C239.631 213.575 238.917 212.868 238.099 212.299C237.298 211.751 236.427 211.314 235.51 211C233.685 210.356 231.742 210.073 229.79 209.929C227.818 209.804 225.842 209.783 223.868 209.864C222.875 209.9 221.88 209.942 220.883 210.008C219.886 210.075 218.887 210.132 217.884 210.198L214.873 210.417C213.865 210.481 212.854 210.559 211.84 210.607L210.311 210.679C210.055 210.689 209.799 210.698 209.542 210.702L208.783 210.715C207.823 210.732 206.865 210.814 205.916 210.958C204.001 211.247 202.141 211.831 200.405 212.691C199.521 213.127 198.675 213.636 197.875 214.21C197.471 214.503 197.077 214.811 196.698 215.139C196.311 215.473 195.946 215.831 195.606 216.213Z" fill="#231C17"/>
<path d="M256.083 203.726C256.083 203.726 263.535 197.752 257.146 192.416C250.757 187.08 231.384 180.465 220.947 177.265C210.51 174.064 195.606 171.929 184.534 199.032C184.534 199.032 195.818 185.165 224.776 192.843C253.733 200.522 256.083 203.726 256.083 203.726Z" fill="#231C17"/>
<path d="M294.613 204.794C294.613 204.794 288.65 197.955 292.907 195.831C297.164 193.708 314.837 187.082 322.076 187.082C329.316 187.082 343.367 185.372 342.09 208.422C342.09 208.422 335.267 194.409 320.799 197.965C306.331 201.521 294.613 204.794 294.613 204.794Z" fill="#231C17"/>
<path d="M318.459 224.838C318.459 224.838 323.995 224.781 327.827 224.202C327.827 224.202 323.214 220.783 313.992 219.394C304.769 218.005 301.784 220.842 301.997 222.813C302.209 224.785 309.236 224.552 311.437 224.552C311.437 224.552 305.689 225.999 301.358 224.493C297.027 222.986 296.745 223.102 299.726 220.671C302.707 218.239 307.118 215.977 316.334 218.178C325.551 220.38 333.581 223.45 335.567 225.71C335.567 225.71 331.06 225.33 329.074 225.247C325.545 225.847 321.931 225.708 318.459 224.838Z" fill="#231C17"/>
<path d="M297.806 217.383C298.001 216.497 298.403 215.669 298.979 214.969C299.558 214.244 300.252 213.62 301.034 213.122C302.603 212.11 304.43 211.568 306.246 211.317C308.053 211.091 309.882 211.086 311.691 211.3C312.559 211.388 313.432 211.49 314.302 211.61C315.172 211.73 316.04 211.861 316.908 211.99C320.375 212.577 323.841 213.388 327.165 214.723C328.838 215.384 330.431 216.231 331.915 217.25C333.382 218.287 334.721 219.569 335.599 221.108C334.31 219.971 332.855 219.037 331.285 218.339C329.74 217.647 328.144 217.075 326.511 216.629C323.244 215.708 319.878 215.094 316.486 214.516C315.638 214.366 314.78 214.233 313.936 214.099L311.378 213.694C309.738 213.413 308.076 213.286 306.412 213.314C304.773 213.324 303.149 213.633 301.619 214.224C300.853 214.533 300.133 214.95 299.483 215.462C299.153 215.725 298.846 216.016 298.564 216.331C298.27 216.649 298.016 217.003 297.806 217.383Z" fill="#231C17"/>
<path d="M247.985 257.507C246.279 259.311 244.647 261.044 243.226 262.904C242.52 263.812 241.872 264.764 241.285 265.753C240.716 266.701 240.251 267.708 239.899 268.756C239.561 269.727 239.422 270.755 239.49 271.781C239.532 272.266 239.641 272.743 239.816 273.198C240.002 273.662 240.251 274.099 240.555 274.495C241.247 275.353 242.094 276.073 243.051 276.617C244.088 277.22 245.164 277.751 246.273 278.207C245.017 278.264 243.759 278.117 242.549 277.774C241.254 277.423 240.062 276.767 239.071 275.861C238.013 274.865 237.313 273.546 237.081 272.109C236.875 270.718 237.005 269.297 237.46 267.966C237.881 266.713 238.48 265.527 239.24 264.446C239.969 263.397 240.805 262.427 241.736 261.553C242.647 260.692 243.634 259.915 244.683 259.23C245.723 258.545 246.829 257.968 247.985 257.507Z" fill="#231C17"/>
<path d="M299.294 261.135C300.308 261.725 301.26 262.415 302.137 263.194C303.02 263.975 303.837 264.827 304.58 265.742C305.334 266.671 306 267.669 306.57 268.722C307.16 269.807 307.61 270.962 307.908 272.161C308.232 273.428 308.285 274.75 308.063 276.04C307.822 277.386 307.168 278.623 306.193 279.579C305.264 280.454 304.133 281.085 302.901 281.412C301.754 281.727 300.562 281.847 299.375 281.765C300.421 281.331 301.434 280.824 302.408 280.246C303.294 279.729 304.072 279.045 304.697 278.23C305.246 277.475 305.583 276.586 305.673 275.656C305.757 274.679 305.673 273.695 305.427 272.746C304.947 270.759 304.007 268.783 302.931 266.857C301.854 264.931 300.579 263.088 299.294 261.135Z" fill="#231C17"/>
<path d="M261.185 284.183C256.068 284.183 241.241 280.625 251.178 279.132C261.115 277.639 266.367 281.981 271.192 286.174C276.017 290.366 281.341 290.94 286.38 285.676C291.42 280.412 295.252 280.697 297.372 281.55C299.493 282.403 300.992 283.83 294.251 284.751C287.51 285.672 286.291 291.44 278.352 291.44C270.413 291.44 270.297 285.891 261.185 284.183Z" fill="#231C17"/>
<path d="M120.763 212.552C119.336 211.023 117.921 209.513 116.404 208.137C115.646 207.448 114.877 206.788 114.075 206.188C113.296 205.591 112.465 205.064 111.592 204.615C110.798 204.19 109.928 203.925 109.032 203.833C108.245 203.763 107.459 203.978 106.816 204.439C106.17 204.898 105.62 205.607 105.16 206.41C104.692 207.254 104.301 208.138 103.991 209.051C103.658 209.999 103.374 210.964 103.138 211.94C102.889 212.922 102.672 213.941 102.501 214.938C102.146 216.958 102.061 219.016 102.249 221.059C102.453 223.105 102.944 225.113 103.708 227.021C104.482 228.923 105.464 230.733 106.636 232.418C107.214 233.266 107.825 234.09 108.456 234.901C108.772 235.305 109.093 235.707 109.42 236.106C109.748 236.504 110.073 236.903 110.396 237.302C111.712 238.894 113.05 240.482 114.376 242.122C115.738 243.773 116.985 245.516 118.108 247.338C118.385 247.8 118.665 248.305 118.898 248.748L119.634 250.108C120.124 251.013 120.622 251.909 121.129 252.796C122.112 254.558 123.205 256.256 124.402 257.879C124.981 258.655 125.629 259.376 126.339 260.033C127.027 260.664 127.779 261.192 128.557 261.431C129.333 261.681 130.176 261.612 130.903 261.241C131.309 261.037 131.687 260.781 132.029 260.482C132.397 260.167 132.74 259.823 133.054 259.454C133.703 258.679 134.289 257.853 134.805 256.984C135.341 256.107 135.83 255.189 136.31 254.262L136.549 254.353C136.28 255.375 135.949 256.379 135.559 257.36C135.167 258.366 134.679 259.33 134.1 260.24C133.503 261.156 132.773 262.054 131.742 262.71C131.211 263.055 130.618 263.295 129.997 263.418C129.359 263.537 128.705 263.526 128.071 263.386C127.468 263.252 126.887 263.036 126.343 262.742C125.826 262.471 125.335 262.153 124.876 261.792C124.008 261.089 123.207 260.307 122.484 259.456C121.778 258.635 121.117 257.776 120.506 256.882C119.888 256.002 119.325 255.096 118.775 254.188C118.226 253.28 117.718 252.351 117.219 251.422L116.49 250.022L116.143 249.338C116.031 249.118 115.913 248.901 115.794 248.683C115.316 247.813 114.784 246.96 114.219 246.117C113.654 245.273 113.067 244.435 112.46 243.603C111.246 241.937 109.968 240.283 108.77 238.554C108.47 238.121 108.173 237.685 107.881 237.245C107.592 236.805 107.313 236.356 107.031 235.916C106.475 235.015 105.943 234.098 105.444 233.161C103.449 229.415 102.01 225.373 101.436 221.172C101.137 219.067 101.026 216.938 101.104 214.813C101.166 212.664 101.455 210.527 101.966 208.439C102.244 207.351 102.65 206.3 103.176 205.309C103.73 204.219 104.538 203.278 105.53 202.566C106.072 202.194 106.678 201.926 107.317 201.775C107.946 201.632 108.595 201.596 109.237 201.671C110.412 201.834 111.539 202.243 112.548 202.87C113.491 203.441 114.373 204.109 115.18 204.862C115.966 205.592 116.706 206.37 117.394 207.193C118.746 208.817 119.945 210.562 120.976 212.408L120.763 212.552Z" fill="#231C17"/>
<path d="M108.651 209.285C108.789 211.099 108.782 212.917 108.776 214.718C108.77 216.518 108.729 218.306 108.858 220.021C108.986 221.737 109.314 223.372 110.137 224.613C110.959 225.853 112.275 226.702 113.812 227.343C114.179 227.491 114.64 227.666 115.061 227.84C115.481 228.015 115.914 228.209 116.332 228.41C117.19 228.822 118.008 229.313 118.775 229.877C119.562 230.451 120.243 231.158 120.788 231.966C121.305 232.769 121.694 233.648 121.94 234.571C122.18 235.461 122.36 236.367 122.481 237.281C122.607 238.186 122.702 239.09 122.791 239.992L123.053 242.695C123.095 243.144 123.136 243.594 123.184 244.044C123.231 244.494 123.278 244.922 123.343 245.359C123.468 246.21 123.658 247.05 123.911 247.872C124.032 248.262 124.18 248.643 124.357 249.012C124.503 249.338 124.694 249.642 124.925 249.914C125.068 250.1 125.268 250.234 125.494 250.294C125.564 250.304 125.635 250.3 125.702 250.281C125.803 250.256 125.898 250.217 125.987 250.163C126.251 249.996 126.487 249.788 126.684 249.546C126.926 249.255 127.142 248.944 127.33 248.617C127.733 247.904 128.066 247.155 128.325 246.379C128.598 245.576 128.827 244.758 129.01 243.93C129.104 243.512 129.184 243.091 129.264 242.667L129.377 242.025L129.481 241.377C129.62 240.513 129.739 239.65 129.836 238.786C130.043 237.078 130.113 235.356 130.044 233.636C129.99 231.959 129.67 230.302 129.097 228.726C128.804 227.955 128.422 227.222 127.96 226.541C127.48 225.856 126.918 225.233 126.286 224.687C125.001 223.583 123.407 222.787 121.709 222.206L121.762 221.955C123.632 222.088 125.444 222.66 127.052 223.625C128.713 224.661 130.059 226.135 130.941 227.886C131.798 229.621 132.336 231.497 132.531 233.423C132.734 235.297 132.744 237.186 132.561 239.061C132.476 239.99 132.353 240.91 132.199 241.823L132.076 242.507L131.943 243.191C131.851 243.653 131.739 244.111 131.621 244.568C131.381 245.491 131.084 246.398 130.73 247.283C130.37 248.198 129.921 249.076 129.389 249.903C129.104 250.341 128.78 250.753 128.422 251.134C128.022 251.567 127.547 251.924 127.021 252.19C126.709 252.342 126.375 252.444 126.03 252.49C125.653 252.536 125.27 252.502 124.906 252.389C124.561 252.281 124.239 252.108 123.959 251.878C123.718 251.678 123.504 251.448 123.322 251.192C122.651 250.231 122.401 249.257 122.215 248.307C122.051 247.376 121.964 246.433 121.954 245.488C121.942 245.026 121.954 244.557 121.954 244.107C121.954 243.657 121.971 243.206 121.973 242.756C121.973 241.858 121.973 240.959 121.935 240.064C121.897 239.17 121.836 238.281 121.719 237.405C121.613 236.531 121.423 235.67 121.15 234.833C120.893 234.021 120.484 233.267 119.945 232.608C119.402 231.979 118.744 231.458 118.008 231.073C117.252 230.679 116.462 230.354 115.648 230.103C115.235 229.972 114.82 229.842 114.399 229.723C113.978 229.603 113.577 229.506 113.095 229.354C112.137 229.07 111.227 228.643 110.395 228.089C109.52 227.501 108.78 226.735 108.221 225.84C107.684 224.959 107.309 223.989 107.116 222.975C106.935 222.024 106.852 221.058 106.868 220.09C106.91 218.25 107.091 216.416 107.41 214.604C107.703 212.816 108.027 211.046 108.395 209.268L108.651 209.285Z" fill="#231C17"/>
<path d="M319.098 363.145C325.06 349.699 316.331 354.181 311.646 362.29C306.961 370.4 302.065 384.706 288.438 383.205C279.654 382.242 282.106 374.45 287.87 364.518C287.553 364.365 287.246 364.191 286.951 363.998C282.692 361.224 280.988 356.529 287.375 349.699C293.762 342.87 293.123 336.468 286.31 338.176C279.497 339.884 274.601 339.886 255.228 339.456C235.855 339.027 256.081 348.846 249.268 356.316C248.396 357.284 247.372 358.102 246.235 358.738C248.534 361.658 250.761 364.194 252.236 365.918C258.625 373.388 249.469 383.418 240.313 382.137C231.157 380.857 219.448 372.748 212.847 358.876C206.246 345.005 201.775 347.993 205.395 358.236C209.015 368.479 209.233 369.543 204.343 366.559C199.454 363.574 186.693 360.493 169.767 346.728C152.84 332.964 139.748 305.115 139.748 295.512C139.748 291.785 138.689 283.814 137.637 274.744C137.48 275.503 137.29 275.859 137.068 275.859C136.003 275.859 121.099 278.634 111.731 256.862C111.731 256.862 119.634 290.068 117.718 301.27C115.802 312.472 118.357 325.918 126.98 334.24C126.98 334.24 123.796 325.722 125.216 319.613C125.216 319.613 125.073 333.271 137.281 343.231C149.488 353.191 162.817 364.71 162.392 375.242C162.392 375.242 164.521 360.805 163.882 356.107C163.882 356.107 162.817 345.009 169.206 353.972C175.595 362.934 198.182 366.579 216.067 380.023C233.952 393.467 247.045 395.068 270.358 394.747C293.671 394.426 296.226 395.387 320.178 372.332C327.854 364.944 333.757 358.151 338.427 351.578C324.052 365.364 313.907 374.85 319.098 363.145Z" fill="#231C17"/>
<path d="M363.597 133.941C349.762 97.6583 343.369 47.0825 297.38 41.7483C297.38 41.7483 270.979 16.9923 214.769 25.9548C194.109 29.1576 164.947 45.5894 155.152 55.6194C145.358 65.6495 120.873 72.2659 111.505 103.215C102.137 134.164 105.755 191.994 105.755 191.994C105.755 191.994 119.382 190.284 126.413 202.877C131.731 212.408 135.828 221.452 137.508 234.17C140.309 226.44 144.793 216.659 147.685 210.565C147.744 206.933 147.831 203.679 147.916 200.957C148.343 187.511 146.131 127.464 189.564 109.218C189.564 109.218 169.444 123.622 163.057 144.11C163.057 144.11 175.187 124.263 191.798 119.462C208.41 114.662 230.761 104.096 230.761 104.096C230.761 104.096 217.041 118.292 203.412 120.853C203.412 120.853 239.68 122.631 270.124 100.65C270.124 100.65 260.544 118.79 245.001 122.203C245.001 122.203 261.183 123.484 279.068 106.412C279.068 106.412 273.318 114.094 275.448 123.698C277.578 133.303 282.69 141.207 266.507 152.296C266.507 152.296 283.753 148.667 285.029 135.009C286.304 121.351 286.734 116.655 294.184 110.466C294.184 110.466 301.849 120.07 293.546 134.156C293.546 134.156 304.83 123.271 300.147 112.173C300.147 112.173 326.335 125.192 328.89 142.906C328.89 142.906 329.102 128.607 324.207 123.484C324.207 123.484 351.246 139.061 357.633 172.568C364.02 206.076 361.253 251.105 361.253 251.105C361.253 251.105 364.873 248.757 364.873 235.952C364.873 223.146 369.131 193.271 366.364 179.612C366.364 179.612 369.982 196.899 368.919 204.366C368.921 204.366 377.436 170.222 363.597 133.941Z" fill="#231C17"/>
<path opacity="0.65" d="M356.585 309.277C362.333 286.55 362.333 263.496 362.333 263.496C362.333 263.496 356.151 308.084 343.796 326.232C331.441 344.379 318.673 350.988 328.465 329.86C338.258 308.732 342.301 289.952 328.465 285.471C314.63 280.99 316.336 286.324 303.981 285.044C291.626 283.763 288.865 289.455 285.883 291.162C282.902 292.87 278.077 295.856 269.56 289.453C261.043 283.049 257.068 283.754 247.558 282.339C238.048 280.923 217.75 282.481 208.666 285.469C199.582 288.457 192.625 299.128 197.31 314.279C201.995 329.431 204.974 346.077 193.051 326.872C181.128 307.666 177.082 301.042 166.438 295.066C155.795 289.09 152.603 281.835 149.831 261.348C147.624 245.011 147.448 224.875 147.683 210.561C144.791 216.655 140.307 226.436 137.506 234.166C138.078 238.651 138.354 243.168 138.334 247.689C138.334 263.774 138.201 271.965 137.631 274.744C138.683 283.813 139.742 291.786 139.742 295.513C139.742 305.115 152.836 332.964 169.761 346.729C186.685 360.493 199.44 363.573 204.337 366.559C209.235 369.545 209.022 368.479 205.402 358.237C201.783 347.994 206.253 345.006 212.855 358.877C219.456 372.748 231.166 380.857 240.32 382.138C249.474 383.418 258.632 373.388 252.243 365.919C250.769 364.194 248.542 361.658 246.243 358.738C239.625 362.412 231.043 358.107 224.992 353.328C217.964 347.779 213.281 331.987 210.726 315.554C208.171 299.12 213.067 298.054 221.15 297.414C221.15 297.414 242.229 293.573 252.45 296.987C262.671 300.4 283.109 302.116 296.097 299.549C309.085 296.983 323.767 297.627 321.646 311.285C319.526 324.944 314.621 341.59 305.04 353.115C296.148 363.81 291.84 366.413 287.862 364.513C282.101 374.444 279.648 382.237 288.431 383.2C302.057 384.695 306.955 370.396 311.638 362.285C316.321 354.173 325.052 349.694 319.09 363.14C313.899 374.845 324.044 365.356 338.421 351.578C348.327 337.652 352.679 324.721 356.585 309.277Z" fill="#231C17"/>
<path opacity="0.3" d="M296.529 47.5099C296.529 47.5099 270.34 20.6206 224.69 30.7931C188.233 38.9121 169.44 46.4746 158.262 59.9183C147.084 73.362 116.107 71.1261 111.317 131.301C111.317 131.301 117.704 90.6486 146.447 83.9258C146.447 83.9258 112.274 101.853 115.788 156.27C115.788 156.27 117.386 111.136 147.725 90.9697C158.583 86.1674 172.954 60.5604 209.36 51.5979C209.36 51.5979 176.466 59.9202 144.85 103.458C144.85 103.458 169.44 77.8489 192.435 72.0873C192.435 72.0873 149.641 87.7726 137.185 145.39C137.185 145.39 159.86 93.2131 198.502 79.1293C237.144 65.0454 244.177 69.2056 256.625 71.1261C256.625 71.1261 206.807 63.1249 170.079 107.618C170.079 107.618 194.351 82.011 240.657 82.3301C240.657 82.3301 207.813 84.8605 195.606 102.645C195.606 102.645 221.44 85.8578 252.383 88.559C252.383 88.559 223.994 91.6896 213.491 99.2312C202.988 106.773 193.478 113.458 186.947 116.161C186.947 116.161 194.755 116.588 207.387 109.616C220.018 102.645 234.358 97.2385 253.094 97.9508C253.094 97.9508 242.164 107.483 222.717 114.595C222.717 114.595 253.518 108.336 264.59 99.3736C275.662 90.4112 277.366 88.1335 287.303 85.4303C287.303 85.4303 273.676 85.5728 259.765 91.1292C259.765 91.1292 268.849 83.8726 279.494 81.7375C279.494 81.7375 260.191 77.8964 247.275 80.0278C247.275 80.0278 265.871 70.6379 289.859 76.8972C289.859 76.8972 262.464 56.5521 228.264 61.816C228.264 61.816 267.158 54.2764 291.997 71.7758C291.997 71.7758 277.52 49.2955 251.117 45.5969C251.117 45.5969 286.319 44.0317 299.804 67.6498C299.804 67.6498 293.985 71.639 293.665 81.0232C293.345 90.4074 288.449 97.8824 279.4 101.404C279.4 101.404 288.662 101.617 294.624 90.6258C294.624 90.6258 296.33 95.9619 289.194 102.045C282.059 108.127 274.717 116.662 280.359 133.736C280.359 133.736 278.761 119.869 290.259 110.473C301.758 101.078 305.908 94.4688 304.419 82.8373C304.419 82.8373 307.83 94.8943 301.117 104.178C301.117 104.178 317.831 112.715 320.812 125.093C320.812 125.093 323.049 118.904 312.828 104.178C312.828 104.178 332.949 108.34 343.595 132.881C343.595 132.881 342.53 108.553 324.22 93.614C324.22 93.614 346.15 102.151 360.203 139.285C360.203 139.285 351.898 93.614 314.638 71.2059C314.638 71.2059 337.42 78.8899 346.576 95.9619C346.565 95.9543 343.813 62.9083 296.529 47.5099Z" fill="#4F443F"/>
<path opacity="0.3" d="M210.368 189.144C204.576 188.238 192.625 188.005 188.935 197.254C185.245 206.503 185.812 209.915 185.387 214.184C184.963 218.452 183.257 226.562 192.483 229.407C201.709 232.253 212.072 236.816 221.725 238.512C231.377 240.209 242.733 241.215 247.701 235.951C252.668 230.688 259.057 219.875 261.327 215.891C263.598 211.908 267.856 206.786 259.908 203.513C251.959 200.24 236.771 193.27 210.368 189.144Z" fill="white"/>
<path d="M372.539 212.051C371.156 209.391 367.111 210.236 361.357 209.391C355.603 208.546 348.369 204.589 338.577 202.775C328.784 200.96 306.737 200.748 298.76 200.748C290.783 200.748 288.008 201.067 284.815 203.521C281.621 205.975 280.876 205.975 277.15 205.975C273.424 205.975 271.4 206.509 269.804 205.123C268.209 203.736 264.481 200.96 259.477 198.185C245.212 190.29 228.534 187.737 210.933 185.309C193.332 182.882 194.894 189.299 189.642 189.299C184.39 189.299 181.551 188.588 176.866 188.159C172.181 187.73 134.282 183.465 122.786 183.465C111.289 183.465 113.203 196.909 113.203 196.909C113.203 196.909 120.123 201.071 120.87 196.162C121.616 191.253 125.767 191.253 133.643 192.002C141.52 192.75 172.075 196.371 177.825 197.23C183.575 198.088 180.698 217.077 180.698 219.959C180.698 222.84 178.782 226.146 189.534 233.826C200.285 241.506 230.092 244.175 241.592 243.75C253.092 243.324 252.671 238.089 256.083 233.606C259.494 229.123 265.451 218.24 272.05 214.077C278.649 209.915 280.035 216.532 280.888 218.24C281.741 219.947 286.316 232.107 289.935 238.727C293.555 245.347 298.665 253.451 310.376 254.091C322.086 254.731 333.727 255.016 347.92 252.313C362.113 249.61 364.029 229.656 365.947 224.429C367.865 219.201 371.59 219.626 372.012 218.773C372.435 217.92 373.924 214.723 372.539 212.051ZM261.327 215.892C259.053 219.881 252.668 230.688 247.7 235.952C242.733 241.216 231.377 240.22 221.724 238.512C212.072 236.805 201.711 232.244 192.483 229.407C183.255 226.571 184.961 218.452 185.387 214.184C185.813 209.915 185.245 206.502 188.935 197.254C192.625 188.007 204.576 188.239 210.368 189.145C236.771 193.271 251.959 200.24 259.907 203.514C267.856 206.787 263.597 211.908 261.327 215.892ZM355.294 239.153C351.46 248.544 344.435 249.397 338.048 249.397C331.661 249.397 312.498 248.757 305.046 247.688C297.594 246.618 290.354 228.691 286.734 216.957C283.115 205.223 298.445 204.579 298.445 204.579C307.464 204.338 314.934 204.446 321.201 204.809C341.194 205.734 355.681 208.736 360.83 214.182C362.691 216.154 362.347 219.881 361.05 224.286C360.074 228.948 357.288 234.29 355.294 239.153Z" fill="#221923"/>
<path opacity="0.3" d="M298.444 204.581C298.444 204.581 283.114 205.222 286.734 216.959C290.354 228.697 297.594 246.622 305.046 247.69C312.498 248.757 331.658 249.399 338.047 249.399C344.436 249.399 351.46 248.546 355.294 239.155C359.128 229.763 364.662 218.242 360.83 214.186C353.886 206.838 329.956 203.941 298.444 204.581Z" fill="white"/>
<path d="M361.893 260.92C362.107 242.995 363.171 210.342 363.171 210.342L359.551 151.228C359.551 151.228 335.066 102.996 314.835 88.4847C294.603 73.9734 242.234 64.7963 227.969 68.6411C213.703 72.486 146.635 92.113 134.924 121.35C123.214 150.587 119.952 188.717 119.952 188.717C119.952 188.717 102.493 188.005 96.5307 203.086C90.5683 218.167 97.2376 232.389 101.496 242.078C105.755 251.766 109.729 247.207 115.976 270.247C122.222 293.288 139.821 318.762 139.821 318.762C139.821 318.762 163.669 345.794 163.101 353.478C162.532 361.162 163.243 377.094 163.101 380.073C162.958 383.051 163.811 396.719 162.958 398.997C162.106 401.274 150.609 407.247 162.25 413.651C173.89 420.054 199.226 438.69 217.111 438.479C234.996 438.268 246.919 436.345 256.075 441.68C265.231 447.014 281.837 454.698 336.556 424.18C336.556 424.18 328.679 418.631 326.975 405.4C325.272 392.169 323.782 374.028 325.059 366.346C325.283 365.197 325.661 364.083 326.181 363.035C329.57 360.049 333.776 356.042 338.426 351.584C348.327 337.652 352.679 324.721 356.585 309.277C362.333 286.55 362.333 263.496 362.333 263.496C362.333 263.496 361.977 266.06 361.266 270.207C361.647 266.828 361.861 263.692 361.893 260.92Z" fill="#FAB790"/>
<path opacity="0.4" d="M361.893 260.92C362.107 242.995 363.171 210.342 363.171 210.342L359.551 151.228C359.551 151.228 335.066 102.996 314.835 88.4847C294.603 73.9734 242.234 64.7963 227.969 68.6411C213.703 72.486 146.635 92.113 134.924 121.35C123.214 150.587 119.952 188.717 119.952 188.717C119.952 188.717 102.493 188.005 96.5307 203.086C90.5683 218.167 97.2376 232.389 101.496 242.078C105.755 251.766 109.729 247.207 115.976 270.247C122.222 293.288 139.821 318.762 139.821 318.762C139.821 318.762 163.669 345.794 163.101 353.478C162.532 361.162 163.243 377.094 163.101 380.073C162.958 383.051 163.811 396.719 162.958 398.997C162.106 401.274 150.609 407.247 162.25 413.651C173.89 420.054 199.226 438.69 217.111 438.479C234.996 438.268 246.919 436.345 256.075 441.68C265.231 447.014 281.837 454.698 336.556 424.18C336.556 424.18 328.679 418.631 326.975 405.4C325.272 392.169 323.782 374.028 325.059 366.346C325.283 365.197 325.661 364.083 326.181 363.035C329.57 360.049 333.776 356.042 338.426 351.584C348.327 337.652 352.679 324.721 356.585 309.277C362.333 286.55 362.333 263.496 362.333 263.496C362.333 263.496 361.977 266.06 361.266 270.207C361.647 266.828 361.861 263.692 361.893 260.92ZM225.556 262.415C217.465 263.98 206.962 270.097 193.051 278.064C179.14 286.031 180.417 265.546 177.296 256.724C174.174 247.902 179.311 240.197 190.923 245.484C204.69 251.752 215.619 250.613 228.537 253.025C241.455 255.438 233.647 260.85 225.556 262.415ZM287.151 275.112C283.85 280.661 279.699 280.876 274.263 275.433C268.828 269.991 265.428 270.304 254.462 270.418C243.496 270.532 250.103 262.734 258.721 259.321C267.338 255.907 266.173 252.482 267.024 243.102C267.875 233.721 268.919 230.52 275.114 231.576C280.118 232.431 279.693 238.193 281.503 245.235C283.313 252.277 281.822 252.704 288.741 262.734C295.661 272.764 290.46 269.563 287.164 275.112H287.151ZM288.144 186.441C280.753 191.705 272.531 197.537 267.988 186.724C263.445 175.911 254.93 176.766 231.651 168.514C208.372 160.262 226.327 150.515 237.763 154.144C248.977 157.702 259.481 140.628 260.049 153.574C260.618 166.52 283.611 153.289 299.66 144.894C315.708 136.5 326.761 155.139 330.741 166.662C334.721 178.185 336.986 182.171 323.217 178.755C309.448 175.34 295.535 181.175 288.154 186.441H288.144ZM348.045 280.767C342.509 291.652 335.377 276.073 323.773 268.817C312.168 261.56 318.879 258.424 324.411 259.533C334.524 261.56 340.805 259.427 347.512 258.574C354.219 257.721 353.59 269.884 348.054 280.767H348.045Z" fill="#D58F6F"/>
<path opacity="0.6" d="M361.893 260.92C362.107 242.995 363.171 210.342 363.171 210.342L359.551 151.228C359.551 151.228 335.066 102.996 314.835 88.4847C294.603 73.9734 242.234 64.7963 227.969 68.6411C213.703 72.486 146.635 92.113 134.924 121.35C123.214 150.587 119.952 188.717 119.952 188.717C119.952 188.717 102.493 188.005 96.5307 203.086C90.5683 218.167 97.2376 232.389 101.496 242.078C105.755 251.766 109.729 247.207 115.976 270.247C122.222 293.288 139.821 318.762 139.821 318.762C139.821 318.762 163.669 345.794 163.101 353.478C162.532 361.162 163.243 377.094 163.101 380.073C162.958 383.051 163.811 396.719 162.958 398.997C162.106 401.274 150.609 407.247 162.25 413.651C170.778 418.341 186.66 429.607 201.578 435.202C194.692 430.721 186.291 424.957 181.767 420.765C173.25 412.868 167.714 415.216 169.417 403.691C171.121 392.166 171.333 396.221 171.333 382.776C171.333 369.33 179.212 370.4 188.368 386.404C197.524 402.409 205.188 403.263 213.917 403.691C222.647 404.118 240.957 426.526 272.469 413.508C303.981 400.49 318.885 377.225 318.885 389.392C318.885 401.559 320.092 411.09 321.369 416.354C322.647 421.618 319.664 423.751 310.155 428.162C300.647 432.573 290.007 436.98 275.378 435.84C260.749 434.7 260.616 437.69 247.273 433.561C236.421 430.206 227.635 435.32 220.075 438.418C236.327 438.063 247.435 436.636 256.084 441.67C265.238 447.006 281.846 454.688 336.565 424.171C336.565 424.171 328.689 418.622 326.985 405.391C325.281 392.16 323.791 374.019 325.069 366.336C325.293 365.187 325.67 364.073 326.191 363.025C329.58 360.039 333.785 356.033 338.436 351.574C348.337 337.642 352.688 324.712 356.594 309.268C362.342 286.54 362.342 263.486 362.342 263.486C362.342 263.486 361.986 266.051 361.275 270.198C361.647 266.828 361.861 263.692 361.893 260.92ZM168.494 168.372C169.772 162.253 170.34 154.571 180.417 137.788C190.494 121.004 203.304 126.056 213.917 128.67C223.712 131.088 236.628 129.097 249.26 126.39C261.891 123.683 267.145 118.565 270.41 125.11C273.676 131.654 275.378 135.637 266.719 148.868C258.059 162.099 279.921 146.45 290.85 141.044C301.78 135.637 298.373 120.271 304.761 123.402C311.15 126.532 321.227 130.943 326.761 144.317C332.295 157.69 327.188 135.78 337.691 144.887C348.194 153.994 353.873 185.577 355.152 192.265C356.431 198.954 354.015 201.513 347.486 200.375C340.957 199.237 343.654 195.109 341.383 188.992C339.113 182.876 336.834 183.586 325.484 183.728C314.133 183.871 297.814 187.718 287.869 194.541C277.925 201.365 273.818 198.53 267.287 196.532C260.756 194.534 266.15 192.264 259.196 184.866C252.243 177.469 241.737 180.598 224.989 172.488C208.241 164.379 206.82 172.914 198.16 174.768C189.501 176.622 188.366 177.186 178.289 177.329C168.212 177.471 167.217 174.489 168.494 168.372ZM358.7 268.604C358.273 284.823 352.525 299.975 345.287 311.285C338.049 322.595 338.898 312.033 340.17 301.255C341.442 290.476 331.547 285.678 324.095 276.286C316.643 266.894 314.833 269.672 316.751 274.472C318.669 279.272 318.879 280.342 314.727 280.448C310.574 280.555 306.033 281.765 309.014 278.929C311.996 276.092 309.865 267.261 304.047 261.997C298.229 256.733 291.698 255.88 299.22 265.696C306.742 275.511 302.063 275.513 299.078 275.656C296.093 275.798 295.53 276.225 287.864 281.204C280.197 286.183 277.218 285.763 271.966 280.777C266.715 275.79 257.489 275.078 248.829 274.66C240.17 274.242 242.575 268.684 246.275 262.567C249.974 256.45 250.823 255.025 242.158 259.864C233.493 264.702 233.357 267.546 233.925 272.667C234.494 277.789 230.235 277.506 223.848 278.501C217.462 279.497 210.08 282.057 217.026 274.945C223.972 267.833 217.594 269.246 207.373 275.798C197.152 282.35 188.935 289.589 188.51 300.966C188.085 312.343 180.986 299.257 170.767 288.303C160.548 277.35 157.707 260.417 157.423 252.165C157.138 243.913 157.707 222.72 157.707 212.044C157.707 201.368 163.722 202.89 171.333 203.828C177.398 204.575 175.486 214.712 175.91 224.535C176.335 234.357 185.172 235.632 193.477 238.727C201.782 241.821 203.484 236.591 198.905 234.458C194.326 232.325 188.792 227.095 188.154 222.08C187.515 217.065 187.941 205.327 194.867 198.498C201.792 191.669 221.8 193.589 233.192 199.991C244.584 206.393 229.146 205.54 221.481 205.327C213.817 205.115 207.646 206.074 197.103 212.476C186.56 218.877 190.396 222.508 197.634 220.587C204.871 218.667 217.861 218.986 224.462 219.519C231.064 220.053 240.75 218.773 231.7 225.068C222.651 231.364 213.506 227.523 209.558 226.455C205.611 225.387 194.108 218.142 205.4 227.523C216.692 236.903 232.333 232.857 240.106 227.842C247.878 222.827 256.714 217.172 248.623 228.482C240.532 239.792 229.993 237.765 220.092 236.698C210.191 235.63 192.518 235.632 210.616 241.715C228.713 247.797 241.489 247.902 251.284 244.167C261.078 240.433 261.897 232.04 268.494 223.93C275.092 215.821 277.296 218.232 279.07 222.863C280.844 227.494 286.45 238.086 293.051 248.614C299.652 259.142 309.871 256.154 320.589 255.586C331.306 255.018 331.943 252.736 318.6 251.388C305.258 250.039 300.785 241.358 297.664 235.811C294.542 230.264 297.309 231.821 304.265 237.163C311.22 242.505 323.57 240.364 330.311 236.878C337.052 233.392 330.88 233.89 326.833 234.887C322.787 235.885 317.75 235.385 312.284 232.895C306.818 230.404 310.049 228.698 330.914 229.872C351.778 231.046 344.434 219.949 335.172 215.572C325.91 211.195 322.823 207.356 341.773 210.772C360.724 214.187 358.167 226.029 354.868 233.499C351.568 240.968 350.183 246.517 342.2 247.797C334.217 249.078 324.847 252.926 335.066 253.986C345.285 255.046 349.332 254.841 354.761 252.387C360.191 249.933 359.126 252.385 358.7 268.604Z" fill="#BC7A61"/>
<path d="M307.743 224.839C307.743 224.839 300.787 225.158 300.609 222.559C300.431 219.96 304.619 218.156 309.765 218.57C314.91 218.984 319.844 219.41 324.315 220.973C328.786 222.536 331.41 224.622 327.472 224.825C323.534 225.029 321.44 225 321.44 225C321.44 225 309.41 224.869 307.743 224.839Z" fill="#D1D3D4"/>
<path d="M224.491 302.75C215.823 302.75 205.258 306.236 216.757 312.21C228.255 318.185 240.46 337.236 267.856 336.398C302.704 335.331 302.597 321.068 309.835 317.368C317.073 313.667 321.794 307.516 310.156 306.379C298.517 305.241 289.858 302.678 278.359 304.813C266.861 306.948 270.767 301.964 254.514 302.11C238.26 302.256 234.57 302.75 224.491 302.75Z" fill="#E2866D"/>
<path d="M310.156 306.379C298.517 305.239 289.858 302.678 278.359 304.813C266.861 306.948 270.767 301.964 254.514 302.11C238.26 302.256 234.57 302.75 224.491 302.75C215.823 302.75 205.258 306.236 216.757 312.21C226.127 317.081 235.971 330.637 254.123 335.029C252.277 331.978 250.119 327.284 254.656 327.719C261.327 328.359 274.457 329.569 283.115 327.647C290.531 326.004 291.126 328.897 288.738 333.291C303.141 328.608 304.485 320.103 309.835 317.368C317.075 313.669 321.794 307.516 310.156 306.379Z" fill="#BC6150"/>
<path d="M216.472 216.479L203.75 216.099C203.75 216.099 200.717 214.178 205.054 213.439C209.39 212.7 214.183 213.2 219.533 212.398C224.883 211.597 232.734 212.292 234.756 213.493C236.778 214.693 238.616 218.082 238.855 218.722C239.094 219.362 238.535 219.708 236.539 218.882C234.543 218.055 232.18 217.014 230.02 216.72C227.859 216.426 221.929 217.52 216.472 216.479Z" fill="#D1D3D4"/>
<path d="M234.756 213.49C232.733 212.29 224.882 211.591 219.533 212.396C214.185 213.202 209.392 212.691 205.054 213.437C202.112 213.944 202.561 214.991 203.158 215.61C208.74 213.853 216.008 214.499 221.427 214.345C227.016 214.184 235.798 214.29 238.141 219.199C238.168 219.255 238.2 219.309 238.235 219.36C238.847 219.398 239.007 219.115 238.859 218.72C238.616 218.08 236.78 214.691 234.756 213.49Z" fill="#8D8F90"/>
<path d="M324.311 220.958C319.84 219.394 314.907 218.959 309.761 218.555C304.616 218.15 300.429 219.943 300.605 222.544C300.61 222.59 300.618 222.637 300.628 222.682C309.109 221.385 317.661 221.007 328.788 224.599C330.599 224.006 328.13 222.293 324.311 220.958Z" fill="#8D8F90"/>
<path d="M230.973 212.478C227.66 211.991 223.055 211.87 219.533 212.396C215.792 212.966 212.332 212.878 209.096 213.034C208.902 214.099 208.863 215.187 208.981 216.263L216.473 216.484C221.929 217.525 227.863 216.431 230.02 216.723C230.378 216.773 230.742 216.843 231.109 216.928C231.363 215.453 231.317 213.941 230.973 212.483V212.478Z" fill="black"/>
<path d="M325.827 224.886C326.274 223.949 326.557 222.942 326.663 221.91C325.97 221.585 325.174 221.262 324.307 220.96C319.837 219.396 314.903 218.961 309.758 218.557C309.439 218.53 309.123 218.515 308.81 218.505C308.225 220.621 308.419 222.878 309.358 224.862C313.122 224.905 321.431 224.987 321.431 224.987C321.431 224.987 322.956 225.006 325.827 224.886Z" fill="black"/>
<path d="M227.88 215.145C228.321 215.145 228.678 214.787 228.678 214.345C228.678 213.903 228.321 213.545 227.88 213.545C227.439 213.545 227.082 213.903 227.082 214.345C227.082 214.787 227.439 215.145 227.88 215.145Z" fill="white"/>
<path d="M323.29 222.381C323.29 222.526 323.247 222.669 323.166 222.79C323.085 222.911 322.97 223.006 322.836 223.062C322.701 223.117 322.553 223.132 322.411 223.103C322.268 223.075 322.137 223.005 322.034 222.902C321.931 222.799 321.861 222.667 321.833 222.524C321.805 222.381 321.819 222.233 321.875 222.099C321.93 221.964 322.025 221.849 322.146 221.768C322.267 221.687 322.409 221.644 322.554 221.644C322.749 221.644 322.936 221.721 323.074 221.859C323.212 221.998 323.29 222.185 323.29 222.381Z" fill="white"/>
<path d="M305.345 218.773C302.438 219.343 300.488 220.754 300.607 222.551C300.751 224.66 305.328 224.854 307.074 224.852C305.182 223.005 305.101 220.5 305.345 218.773Z" fill="#C1797B"/>
<path d="M237.197 227.132C235.935 227.98 234.592 228.701 233.188 229.284C231.782 229.881 230.333 230.37 228.854 230.747C225.873 231.523 222.788 231.819 219.715 231.624C216.632 231.428 213.609 230.683 210.787 229.425C207.992 228.183 205.446 226.442 203.274 224.286C205.758 225.941 208.426 227.302 211.223 228.342C213.99 229.337 216.882 229.94 219.816 230.133C222.757 230.314 225.71 230.139 228.609 229.611C230.072 229.347 231.52 229.009 232.948 228.596C234.391 228.19 235.809 227.701 237.197 227.132Z" fill="#A46047"/>
<path opacity="0.65" d="M194.186 219.448C193.815 219.739 193.393 219.961 192.943 220.103C192.498 220.252 192.039 220.354 191.573 220.407C190.645 220.509 189.707 220.464 188.793 220.274C187.888 220.09 187.012 219.783 186.19 219.362C185.364 218.95 184.613 218.403 183.967 217.742C184.896 217.865 185.749 218.072 186.596 218.258C187.443 218.445 188.264 218.638 189.088 218.811C189.913 218.984 190.735 219.125 191.575 219.237C192.44 219.359 193.312 219.43 194.186 219.448Z" fill="#A46047"/>
<path opacity="0.65" d="M198.445 221.155C197.141 221.59 195.886 222.02 194.654 222.485C193.437 222.941 192.245 223.465 191.086 224.054C189.94 224.637 188.848 225.321 187.824 226.098C186.779 226.91 185.818 227.825 184.958 228.832C185.344 227.476 186.057 226.237 187.034 225.223C188.005 224.199 189.146 223.351 190.405 222.717C191.646 222.085 192.967 221.624 194.332 221.349C195.684 221.062 197.073 220.996 198.445 221.155Z" fill="#A46047"/>
<path d="M303.13 232.538C304.293 233.174 305.488 233.749 306.71 234.263C307.923 234.776 309.151 235.236 310.396 235.629C312.868 236.425 315.424 236.929 318.013 237.131C320.593 237.323 323.187 237.151 325.719 236.62C328.29 236.056 330.785 235.187 333.15 234.031C331.031 235.722 328.606 236.988 326.009 237.758C323.383 238.538 320.636 238.83 317.905 238.621C315.186 238.41 312.517 237.768 309.998 236.721C308.748 236.207 307.538 235.6 306.378 234.905C305.81 234.557 305.241 234.193 304.693 233.796C304.146 233.41 303.624 232.99 303.13 232.538Z" fill="#A46047"/>
<path opacity="0.65" d="M338.904 227.735C339.57 228.188 340.262 228.602 340.976 228.974C342.288 229.662 343.731 230.062 345.21 230.148C345.968 230.205 346.762 230.178 347.634 230.19C346.966 230.76 346.164 231.149 345.303 231.318C344.418 231.499 343.504 231.467 342.634 231.226C341.764 230.984 340.964 230.539 340.299 229.928C339.975 229.629 339.688 229.293 339.444 228.926C339.198 228.563 339.015 228.16 338.904 227.735Z" fill="#A46047"/>
<path opacity="0.65" d="M337.621 232.01C338.818 231.956 340.016 232.102 341.165 232.443C342.334 232.77 343.446 233.272 344.465 233.932C345.519 234.603 346.41 235.501 347.073 236.562C347.723 237.635 348.045 238.929 347.842 240.12C347.457 239.063 346.875 238.09 346.125 237.253C345.391 236.458 344.558 235.762 343.646 235.181C342.711 234.577 341.742 234.027 340.744 233.535C339.732 233.019 338.694 232.532 337.621 232.01Z" fill="#A46047"/>
<path opacity="0.65" d="M202.207 285.891C201.372 287.639 200.63 289.43 199.984 291.258C199.341 293.038 198.879 294.878 198.606 296.751C198.333 298.593 198.39 300.469 198.777 302.291C199.217 304.15 200.024 305.903 201.152 307.444C200.35 306.847 199.644 306.131 199.057 305.321C198.46 304.493 197.986 303.582 197.651 302.617C196.971 300.676 196.855 298.562 197.13 296.552C197.419 294.556 198.018 292.618 198.906 290.807C199.338 289.912 199.831 289.047 200.38 288.218C200.655 287.806 200.949 287.401 201.248 287.012C201.546 286.62 201.867 286.246 202.207 285.891Z" fill="#A46047"/>
<path opacity="0.65" d="M329.531 289.518C329.9 289.768 330.249 290.048 330.573 290.355C330.901 290.661 331.212 290.983 331.505 291.322C333.297 293.406 334.446 295.967 334.813 298.693C335.28 302.337 334.299 306.019 332.082 308.945C332.623 307.3 333.027 305.613 333.291 303.902C333.53 302.241 333.544 300.556 333.331 298.892C333.108 297.229 332.666 295.602 332.015 294.056C331.348 292.461 330.514 290.941 329.527 289.523L329.531 289.518Z" fill="#A46047"/>
<path d="M225.131 305.381C220.162 305.381 210.225 306.947 219.878 310.51C229.53 314.074 244.434 326.872 268.706 326.446C292.979 326.021 298.232 320.043 306.042 316.202C313.853 312.361 316.688 308.092 306.611 308.52C296.534 308.947 294.121 312.509 273.397 312.218C252.673 311.927 238.898 306.096 225.131 305.381Z" fill="#25100B"/>
<path d="M273.392 312.211C253.549 311.939 240.083 306.582 226.888 305.503C226.758 307.822 226.646 311.012 226.778 313.806C236.285 318.903 249.589 326.775 268.707 326.439C288.588 326.089 295.708 322.016 301.922 318.445C302.127 315.839 302.267 312.317 301.972 308.972C295.164 310.045 290.564 312.446 273.392 312.211Z" fill="white"/>
<path d="M296.241 321.463C298.378 320.479 300.186 319.442 301.926 318.445C302.131 315.839 302.271 312.317 301.975 308.971C295.168 310.045 290.568 312.446 273.395 312.201C253.552 311.929 240.087 306.572 226.892 305.493C226.761 307.813 226.65 311.002 226.782 313.796C229.047 315.01 231.52 316.382 234.253 317.763L234.361 310.21C234.361 310.21 246.923 312.983 253.842 314.579C260.762 316.175 275.88 318.42 284.924 316.393C293.968 314.366 296.847 312.659 296.529 315.538C296.358 317.1 296.278 319.537 296.241 321.463Z" fill="#BCBEC0"/>
<path d="M264.005 330.439C259.633 329.978 260.173 331.769 263.527 332.253C266.882 332.738 274.759 335.829 278.856 332.681C282.954 329.533 279.603 329.746 276.622 329.959C273.64 330.171 271.086 331.186 264.005 330.439Z" fill="#EDA08E"/>
<path d="M219.315 217.172C219.315 217.172 206.363 216.425 204.127 216.745C204.127 216.745 199.656 216.745 196.569 219.947C196.569 219.947 198.803 212.797 207.641 212.691C216.478 212.584 230.384 209.205 235.283 213.331C240.182 217.457 243.375 223.006 238.194 220.658C233.012 218.31 231.665 216.745 226.129 216.959C228.575 216.142 231.233 216.237 233.615 217.225C237.661 218.88 238.194 218.025 236.49 215.998C234.786 213.971 231.373 212.579 225.471 212.744C219.569 212.909 212.377 214.237 208.279 214.024C204.182 213.812 203.92 215.251 203.92 215.251C203.92 215.251 204.478 214.478 209.775 215.305C215.072 216.131 216.241 215.172 219.315 217.172Z" fill="#231C17"/>
<path d="M195.606 216.213C196.087 215.296 196.692 214.45 197.405 213.699C198.117 212.931 198.906 212.239 199.76 211.633C201.501 210.41 203.451 209.52 205.514 209.007C206.547 208.747 207.599 208.571 208.66 208.481L210.161 208.35L211.657 208.206L214.67 207.911C215.678 207.818 216.69 207.735 217.702 207.655C218.714 207.575 219.738 207.528 220.761 207.484C221.785 207.44 222.81 207.425 223.839 207.438C225.913 207.442 227.983 207.607 230.031 207.932C232.083 208.284 234.151 208.836 236.026 209.853C236.965 210.351 237.821 210.992 238.565 211.752C238.928 212.133 239.254 212.55 239.535 212.995C239.808 213.434 240.034 213.902 240.208 214.389C239.631 213.575 238.917 212.868 238.099 212.299C237.298 211.751 236.427 211.314 235.51 211C233.685 210.356 231.742 210.073 229.79 209.929C227.818 209.804 225.842 209.783 223.868 209.864C222.875 209.9 221.88 209.942 220.883 210.008C219.886 210.075 218.887 210.132 217.884 210.198L214.873 210.417C213.865 210.481 212.854 210.559 211.84 210.607L210.311 210.679C210.055 210.689 209.799 210.698 209.542 210.702L208.783 210.715C207.823 210.732 206.865 210.814 205.916 210.958C204.001 211.247 202.141 211.831 200.405 212.691C199.521 213.127 198.675 213.636 197.875 214.21C197.471 214.503 197.077 214.811 196.698 215.139C196.311 215.473 195.946 215.831 195.606 216.213Z" fill="#231C17"/>
<path d="M256.083 203.726C256.083 203.726 263.535 197.752 257.146 192.416C250.757 187.08 231.384 180.465 220.947 177.265C210.51 174.064 195.606 171.929 184.534 199.032C184.534 199.032 195.818 185.165 224.776 192.843C253.733 200.522 256.083 203.726 256.083 203.726Z" fill="#231C17"/>
<path d="M294.613 204.794C294.613 204.794 288.65 197.955 292.907 195.831C297.164 193.708 314.837 187.082 322.076 187.082C329.316 187.082 343.367 185.372 342.09 208.422C342.09 208.422 335.267 194.409 320.799 197.965C306.331 201.521 294.613 204.794 294.613 204.794Z" fill="#231C17"/>
<path d="M318.459 224.838C318.459 224.838 323.995 224.781 327.827 224.202C327.827 224.202 323.214 220.783 313.992 219.394C304.769 218.005 301.784 220.842 301.997 222.813C302.209 224.785 309.236 224.552 311.437 224.552C311.437 224.552 305.689 225.999 301.358 224.493C297.027 222.986 296.745 223.102 299.726 220.671C302.707 218.239 307.118 215.977 316.334 218.178C325.551 220.38 333.581 223.45 335.567 225.71C335.567 225.71 331.06 225.33 329.074 225.247C325.545 225.847 321.931 225.708 318.459 224.838Z" fill="#231C17"/>
<path d="M297.806 217.383C298.001 216.497 298.403 215.669 298.979 214.969C299.558 214.244 300.252 213.62 301.034 213.122C302.603 212.11 304.43 211.568 306.246 211.317C308.053 211.091 309.882 211.086 311.691 211.3C312.559 211.388 313.432 211.49 314.302 211.61C315.172 211.73 316.04 211.861 316.908 211.99C320.375 212.577 323.841 213.388 327.165 214.723C328.838 215.384 330.431 216.231 331.915 217.25C333.382 218.287 334.721 219.569 335.599 221.108C334.31 219.971 332.855 219.037 331.285 218.339C329.74 217.647 328.144 217.075 326.511 216.629C323.244 215.708 319.878 215.094 316.486 214.516C315.638 214.366 314.78 214.233 313.936 214.099L311.378 213.694C309.738 213.413 308.076 213.286 306.412 213.314C304.773 213.324 303.149 213.633 301.619 214.224C300.853 214.533 300.133 214.95 299.483 215.462C299.153 215.725 298.846 216.016 298.564 216.331C298.27 216.649 298.016 217.003 297.806 217.383Z" fill="#231C17"/>
<path d="M247.985 257.507C246.279 259.311 244.647 261.044 243.226 262.904C242.52 263.812 241.872 264.764 241.285 265.753C240.716 266.701 240.251 267.708 239.899 268.756C239.561 269.727 239.422 270.755 239.49 271.781C239.532 272.266 239.641 272.743 239.816 273.198C240.002 273.662 240.251 274.099 240.555 274.495C241.247 275.353 242.094 276.073 243.051 276.617C244.088 277.22 245.164 277.751 246.273 278.207C245.017 278.264 243.759 278.117 242.549 277.774C241.254 277.423 240.062 276.767 239.071 275.861C238.013 274.865 237.313 273.546 237.081 272.109C236.875 270.718 237.005 269.297 237.46 267.966C237.881 266.713 238.48 265.527 239.24 264.446C239.969 263.397 240.805 262.427 241.736 261.553C242.647 260.692 243.634 259.915 244.683 259.23C245.723 258.545 246.829 257.968 247.985 257.507Z" fill="#231C17"/>
<path d="M299.294 261.135C300.308 261.725 301.26 262.415 302.137 263.194C303.02 263.975 303.837 264.827 304.58 265.742C305.334 266.671 306 267.669 306.57 268.722C307.16 269.807 307.61 270.962 307.908 272.161C308.232 273.428 308.285 274.75 308.063 276.04C307.822 277.386 307.168 278.623 306.193 279.579C305.264 280.454 304.133 281.085 302.901 281.412C301.754 281.727 300.562 281.847 299.375 281.765C300.421 281.331 301.434 280.824 302.408 280.246C303.294 279.729 304.072 279.045 304.697 278.23C305.246 277.475 305.583 276.586 305.673 275.656C305.757 274.679 305.673 273.695 305.427 272.746C304.947 270.759 304.007 268.783 302.931 266.857C301.854 264.931 300.579 263.088 299.294 261.135Z" fill="#231C17"/>
<path d="M261.185 284.183C256.068 284.183 241.241 280.625 251.178 279.132C261.115 277.639 266.367 281.981 271.192 286.174C276.017 290.366 281.341 290.94 286.38 285.676C291.42 280.412 295.252 280.697 297.372 281.55C299.493 282.403 300.992 283.83 294.251 284.751C287.51 285.672 286.291 291.44 278.352 291.44C270.413 291.44 270.297 285.891 261.185 284.183Z" fill="#231C17"/>
<path d="M120.763 212.552C119.336 211.023 117.921 209.513 116.404 208.137C115.646 207.448 114.877 206.788 114.075 206.188C113.296 205.591 112.465 205.064 111.592 204.615C110.798 204.19 109.928 203.925 109.032 203.833C108.245 203.763 107.459 203.978 106.816 204.439C106.17 204.898 105.62 205.607 105.16 206.41C104.692 207.254 104.301 208.138 103.991 209.051C103.658 209.999 103.374 210.964 103.138 211.94C102.889 212.922 102.672 213.941 102.501 214.938C102.146 216.958 102.061 219.016 102.249 221.059C102.453 223.105 102.944 225.113 103.708 227.021C104.482 228.923 105.464 230.733 106.636 232.418C107.214 233.266 107.825 234.09 108.456 234.901C108.772 235.305 109.093 235.707 109.42 236.106C109.748 236.504 110.073 236.903 110.396 237.302C111.712 238.894 113.05 240.482 114.376 242.122C115.738 243.773 116.985 245.516 118.108 247.338C118.385 247.8 118.665 248.305 118.898 248.748L119.634 250.108C120.124 251.013 120.622 251.909 121.129 252.796C122.112 254.558 123.205 256.256 124.402 257.879C124.981 258.655 125.629 259.376 126.339 260.033C127.027 260.664 127.779 261.192 128.557 261.431C129.333 261.681 130.176 261.612 130.903 261.241C131.309 261.037 131.687 260.781 132.029 260.482C132.397 260.167 132.74 259.823 133.054 259.454C133.703 258.679 134.289 257.853 134.805 256.984C135.341 256.107 135.83 255.189 136.31 254.262L136.549 254.353C136.28 255.375 135.949 256.379 135.559 257.36C135.167 258.366 134.679 259.33 134.1 260.24C133.503 261.156 132.773 262.054 131.742 262.71C131.211 263.055 130.618 263.295 129.997 263.418C129.359 263.537 128.705 263.526 128.071 263.386C127.468 263.252 126.887 263.036 126.343 262.742C125.826 262.471 125.335 262.153 124.876 261.792C124.008 261.089 123.207 260.307 122.484 259.456C121.778 258.635 121.117 257.776 120.506 256.882C119.888 256.002 119.325 255.096 118.775 254.188C118.226 253.28 117.718 252.351 117.219 251.422L116.49 250.022L116.143 249.338C116.031 249.118 115.913 248.901 115.794 248.683C115.316 247.813 114.784 246.96 114.219 246.117C113.654 245.273 113.067 244.435 112.46 243.603C111.246 241.937 109.968 240.283 108.77 238.554C108.47 238.121 108.173 237.685 107.881 237.245C107.592 236.805 107.313 236.356 107.031 235.916C106.475 235.015 105.943 234.098 105.444 233.161C103.449 229.415 102.01 225.373 101.436 221.172C101.137 219.067 101.026 216.938 101.104 214.813C101.166 212.664 101.455 210.527 101.966 208.439C102.244 207.351 102.65 206.3 103.176 205.309C103.73 204.219 104.538 203.278 105.53 202.566C106.072 202.194 106.678 201.926 107.317 201.775C107.946 201.632 108.595 201.596 109.237 201.671C110.412 201.834 111.539 202.243 112.548 202.87C113.491 203.441 114.373 204.109 115.18 204.862C115.966 205.592 116.706 206.37 117.394 207.193C118.746 208.817 119.945 210.562 120.976 212.408L120.763 212.552Z" fill="#231C17"/>
<path d="M108.651 209.285C108.789 211.099 108.782 212.917 108.776 214.718C108.77 216.518 108.729 218.306 108.858 220.021C108.986 221.737 109.314 223.372 110.137 224.613C110.959 225.853 112.275 226.702 113.812 227.343C114.179 227.491 114.64 227.666 115.061 227.84C115.481 228.015 115.914 228.209 116.332 228.41C117.19 228.822 118.008 229.313 118.775 229.877C119.562 230.451 120.243 231.158 120.788 231.966C121.305 232.769 121.694 233.648 121.94 234.571C122.18 235.461 122.36 236.367 122.481 237.281C122.607 238.186 122.702 239.09 122.791 239.992L123.053 242.695C123.095 243.144 123.136 243.594 123.184 244.044C123.231 244.494 123.278 244.922 123.343 245.359C123.468 246.21 123.658 247.05 123.911 247.872C124.032 248.262 124.18 248.643 124.357 249.012C124.503 249.338 124.694 249.642 124.925 249.914C125.068 250.1 125.268 250.234 125.494 250.294C125.564 250.304 125.635 250.3 125.702 250.281C125.803 250.256 125.898 250.217 125.987 250.163C126.251 249.996 126.487 249.788 126.684 249.546C126.926 249.255 127.142 248.944 127.33 248.617C127.733 247.904 128.066 247.155 128.325 246.379C128.598 245.576 128.827 244.758 129.01 243.93C129.104 243.512 129.184 243.091 129.264 242.667L129.377 242.025L129.481 241.377C129.62 240.513 129.739 239.65 129.836 238.786C130.043 237.078 130.113 235.356 130.044 233.636C129.99 231.959 129.67 230.302 129.097 228.726C128.804 227.955 128.422 227.222 127.96 226.541C127.48 225.856 126.918 225.233 126.286 224.687C125.001 223.583 123.407 222.787 121.709 222.206L121.762 221.955C123.632 222.088 125.444 222.66 127.052 223.625C128.713 224.661 130.059 226.135 130.941 227.886C131.798 229.621 132.336 231.497 132.531 233.423C132.734 235.297 132.744 237.186 132.561 239.061C132.476 239.99 132.353 240.91 132.199 241.823L132.076 242.507L131.943 243.191C131.851 243.653 131.739 244.111 131.621 244.568C131.381 245.491 131.084 246.398 130.73 247.283C130.37 248.198 129.921 249.076 129.389 249.903C129.104 250.341 128.78 250.753 128.422 251.134C128.022 251.567 127.547 251.924 127.021 252.19C126.709 252.342 126.375 252.444 126.03 252.49C125.653 252.536 125.27 252.502 124.906 252.389C124.561 252.281 124.239 252.108 123.959 251.878C123.718 251.678 123.504 251.448 123.322 251.192C122.651 250.231 122.401 249.257 122.215 248.307C122.051 247.376 121.964 246.433 121.954 245.488C121.942 245.026 121.954 244.557 121.954 244.107C121.954 243.657 121.971 243.206 121.973 242.756C121.973 241.858 121.973 240.959 121.935 240.064C121.897 239.17 121.836 238.281 121.719 237.405C121.613 236.531 121.423 235.67 121.15 234.833C120.893 234.021 120.484 233.267 119.945 232.608C119.402 231.979 118.744 231.458 118.008 231.073C117.252 230.679 116.462 230.354 115.648 230.103C115.235 229.972 114.82 229.842 114.399 229.723C113.978 229.603 113.577 229.506 113.095 229.354C112.137 229.07 111.227 228.643 110.395 228.089C109.52 227.501 108.78 226.735 108.221 225.84C107.684 224.959 107.309 223.989 107.116 222.975C106.935 222.024 106.852 221.058 106.868 220.09C106.91 218.25 107.091 216.416 107.41 214.604C107.703 212.816 108.027 211.046 108.395 209.268L108.651 209.285Z" fill="#231C17"/>
<path d="M319.098 363.145C325.06 349.699 316.331 354.181 311.646 362.29C306.961 370.4 302.065 384.706 288.438 383.205C279.654 382.242 282.106 374.45 287.87 364.518C287.553 364.365 287.246 364.191 286.951 363.998C282.692 361.224 280.988 356.529 287.375 349.699C293.762 342.87 293.123 336.468 286.31 338.176C279.497 339.884 274.601 339.886 255.228 339.456C235.855 339.027 256.081 348.846 249.268 356.316C248.396 357.284 247.372 358.102 246.235 358.738C248.534 361.658 250.761 364.194 252.236 365.918C258.625 373.388 249.469 383.418 240.313 382.137C231.157 380.857 219.448 372.748 212.847 358.876C206.246 345.005 201.775 347.993 205.395 358.236C209.015 368.479 209.233 369.543 204.343 366.559C199.454 363.574 186.693 360.493 169.767 346.728C152.84 332.964 139.748 305.115 139.748 295.512C139.748 291.785 138.689 283.814 137.637 274.744C137.48 275.503 137.29 275.859 137.068 275.859C136.003 275.859 121.099 278.634 111.731 256.862C111.731 256.862 119.634 290.068 117.718 301.27C115.802 312.472 118.357 325.918 126.98 334.24C126.98 334.24 123.796 325.722 125.216 319.613C125.216 319.613 125.073 333.271 137.281 343.231C149.488 353.191 162.817 364.71 162.392 375.242C162.392 375.242 164.521 360.805 163.882 356.107C163.882 356.107 162.817 345.009 169.206 353.972C175.595 362.934 198.182 366.579 216.067 380.023C233.952 393.467 247.045 395.068 270.358 394.747C293.671 394.426 296.226 395.387 320.178 372.332C327.854 364.944 333.757 358.151 338.427 351.578C324.052 365.364 313.907 374.85 319.098 363.145Z" fill="#231C17"/>
<path d="M363.597 133.941C349.762 97.6583 343.369 47.0825 297.38 41.7483C297.38 41.7483 270.979 16.9923 214.769 25.9548C194.109 29.1576 164.947 45.5894 155.152 55.6194C145.358 65.6495 120.873 72.2659 111.505 103.215C102.137 134.164 105.755 191.994 105.755 191.994C105.755 191.994 119.382 190.284 126.413 202.877C131.731 212.408 135.828 221.452 137.508 234.17C140.309 226.44 144.793 216.659 147.685 210.565C147.744 206.933 147.831 203.679 147.916 200.957C148.343 187.511 146.131 127.464 189.564 109.218C189.564 109.218 169.444 123.622 163.057 144.11C163.057 144.11 175.187 124.263 191.798 119.462C208.41 114.662 230.761 104.096 230.761 104.096C230.761 104.096 217.041 118.292 203.412 120.853C203.412 120.853 239.68 122.631 270.124 100.65C270.124 100.65 260.544 118.79 245.001 122.203C245.001 122.203 261.183 123.484 279.068 106.412C279.068 106.412 273.318 114.094 275.448 123.698C277.578 133.303 282.69 141.207 266.507 152.296C266.507 152.296 283.753 148.667 285.029 135.009C286.304 121.351 286.734 116.655 294.184 110.466C294.184 110.466 301.849 120.07 293.546 134.156C293.546 134.156 304.83 123.271 300.147 112.173C300.147 112.173 326.335 125.192 328.89 142.906C328.89 142.906 329.102 128.607 324.207 123.484C324.207 123.484 351.246 139.061 357.633 172.568C364.02 206.076 361.253 251.105 361.253 251.105C361.253 251.105 364.873 248.757 364.873 235.952C364.873 223.146 369.131 193.271 366.364 179.612C366.364 179.612 369.982 196.899 368.919 204.366C368.921 204.366 377.436 170.222 363.597 133.941Z" fill="#231C17"/>
<path opacity="0.65" d="M356.585 309.277C362.333 286.55 362.333 263.496 362.333 263.496C362.333 263.496 356.151 308.084 343.796 326.232C331.441 344.379 318.673 350.988 328.465 329.86C338.258 308.732 342.301 289.952 328.465 285.471C314.63 280.99 316.336 286.324 303.981 285.044C291.626 283.763 288.865 289.455 285.883 291.162C282.902 292.87 278.077 295.856 269.56 289.453C261.043 283.049 257.068 283.754 247.558 282.339C238.048 280.923 217.75 282.481 208.666 285.469C199.582 288.457 192.625 299.128 197.31 314.279C201.995 329.431 204.974 346.077 193.051 326.872C181.128 307.666 177.082 301.042 166.438 295.066C155.795 289.09 152.603 281.835 149.831 261.348C147.624 245.011 147.448 224.875 147.683 210.561C144.791 216.655 140.307 226.436 137.506 234.166C138.078 238.651 138.354 243.168 138.334 247.689C138.334 263.774 138.201 271.965 137.631 274.744C138.683 283.813 139.742 291.786 139.742 295.513C139.742 305.115 152.836 332.964 169.761 346.729C186.685 360.493 199.44 363.573 204.337 366.559C209.235 369.545 209.022 368.479 205.402 358.237C201.783 347.994 206.253 345.006 212.855 358.877C219.456 372.748 231.166 380.857 240.32 382.138C249.474 383.418 258.632 373.388 252.243 365.919C250.769 364.194 248.542 361.658 246.243 358.738C239.625 362.412 231.043 358.107 224.992 353.328C217.964 347.779 213.281 331.987 210.726 315.554C208.171 299.12 213.067 298.054 221.15 297.414C221.15 297.414 242.229 293.573 252.45 296.987C262.671 300.4 283.109 302.116 296.097 299.549C309.085 296.983 323.767 297.627 321.646 311.285C319.526 324.944 314.621 341.59 305.04 353.115C296.148 363.81 291.84 366.413 287.862 364.513C282.101 374.444 279.648 382.237 288.431 383.2C302.057 384.695 306.955 370.396 311.638 362.285C316.321 354.173 325.052 349.694 319.09 363.14C313.899 374.845 324.044 365.356 338.421 351.578C348.327 337.652 352.679 324.721 356.585 309.277Z" fill="#231C17"/>
<path opacity="0.3" d="M296.529 47.5099C296.529 47.5099 270.34 20.6206 224.69 30.7931C188.233 38.9121 169.44 46.4746 158.262 59.9183C147.084 73.362 116.107 71.1261 111.317 131.301C111.317 131.301 117.704 90.6486 146.447 83.9258C146.447 83.9258 112.274 101.853 115.788 156.27C115.788 156.27 117.386 111.136 147.725 90.9697C158.583 86.1674 172.954 60.5604 209.36 51.5979C209.36 51.5979 176.466 59.9202 144.85 103.458C144.85 103.458 169.44 77.8489 192.435 72.0873C192.435 72.0873 149.641 87.7726 137.185 145.39C137.185 145.39 159.86 93.2131 198.502 79.1293C237.144 65.0454 244.177 69.2056 256.625 71.1261C256.625 71.1261 206.807 63.1249 170.079 107.618C170.079 107.618 194.351 82.011 240.657 82.3301C240.657 82.3301 207.813 84.8605 195.606 102.645C195.606 102.645 221.44 85.8578 252.383 88.559C252.383 88.559 223.994 91.6896 213.491 99.2312C202.988 106.773 193.478 113.458 186.947 116.161C186.947 116.161 194.755 116.588 207.387 109.616C220.018 102.645 234.358 97.2385 253.094 97.9508C253.094 97.9508 242.164 107.483 222.717 114.595C222.717 114.595 253.518 108.336 264.59 99.3736C275.662 90.4112 277.366 88.1335 287.303 85.4303C287.303 85.4303 273.676 85.5728 259.765 91.1292C259.765 91.1292 268.849 83.8726 279.494 81.7375C279.494 81.7375 260.191 77.8964 247.275 80.0278C247.275 80.0278 265.871 70.6379 289.859 76.8972C289.859 76.8972 262.464 56.5521 228.264 61.816C228.264 61.816 267.158 54.2764 291.997 71.7758C291.997 71.7758 277.52 49.2955 251.117 45.5969C251.117 45.5969 286.319 44.0317 299.804 67.6498C299.804 67.6498 293.985 71.639 293.665 81.0232C293.345 90.4074 288.449 97.8824 279.4 101.404C279.4 101.404 288.662 101.617 294.624 90.6258C294.624 90.6258 296.33 95.9619 289.194 102.045C282.059 108.127 274.717 116.662 280.359 133.736C280.359 133.736 278.761 119.869 290.259 110.473C301.758 101.078 305.908 94.4688 304.419 82.8373C304.419 82.8373 307.83 94.8943 301.117 104.178C301.117 104.178 317.831 112.715 320.812 125.093C320.812 125.093 323.049 118.904 312.828 104.178C312.828 104.178 332.949 108.34 343.595 132.881C343.595 132.881 342.53 108.553 324.22 93.614C324.22 93.614 346.15 102.151 360.203 139.285C360.203 139.285 351.898 93.614 314.638 71.2059C314.638 71.2059 337.42 78.8899 346.576 95.9619C346.565 95.9543 343.813 62.9083 296.529 47.5099Z" fill="#4F443F"/>
<path opacity="0.3" d="M210.368 189.144C204.576 188.238 192.625 188.005 188.935 197.254C185.245 206.503 185.812 209.915 185.387 214.184C184.963 218.452 183.257 226.562 192.483 229.407C201.709 232.253 212.072 236.816 221.725 238.512C231.377 240.209 242.733 241.215 247.701 235.951C252.668 230.688 259.057 219.875 261.327 215.891C263.598 211.908 267.856 206.786 259.908 203.513C251.959 200.24 236.771 193.27 210.368 189.144Z" fill="white"/>
<path d="M372.539 212.051C371.156 209.391 367.111 210.236 361.357 209.391C355.603 208.546 348.369 204.589 338.577 202.775C328.784 200.96 306.737 200.748 298.76 200.748C290.783 200.748 288.008 201.067 284.815 203.521C281.621 205.975 280.876 205.975 277.15 205.975C273.424 205.975 271.4 206.509 269.804 205.123C268.209 203.736 264.481 200.96 259.477 198.185C245.212 190.29 228.534 187.737 210.933 185.309C193.332 182.882 194.894 189.299 189.642 189.299C184.39 189.299 181.551 188.588 176.866 188.159C172.181 187.73 134.282 183.465 122.786 183.465C111.289 183.465 113.203 196.909 113.203 196.909C113.203 196.909 120.123 201.071 120.87 196.162C121.616 191.253 125.767 191.253 133.643 192.002C141.52 192.75 172.075 196.371 177.825 197.23C183.575 198.088 180.698 217.077 180.698 219.959C180.698 222.84 178.782 226.146 189.534 233.826C200.285 241.506 230.092 244.175 241.592 243.75C253.092 243.324 252.671 238.089 256.083 233.606C259.494 229.123 265.451 218.24 272.05 214.077C278.649 209.915 280.035 216.532 280.888 218.24C281.741 219.947 286.316 232.107 289.935 238.727C293.555 245.347 298.665 253.451 310.376 254.091C322.086 254.731 333.727 255.016 347.92 252.313C362.113 249.61 364.029 229.656 365.947 224.429C367.865 219.201 371.59 219.626 372.012 218.773C372.435 217.92 373.924 214.723 372.539 212.051ZM261.327 215.892C259.053 219.881 252.668 230.688 247.7 235.952C242.733 241.216 231.377 240.22 221.724 238.512C212.072 236.805 201.711 232.244 192.483 229.407C183.255 226.571 184.961 218.452 185.387 214.184C185.813 209.915 185.245 206.502 188.935 197.254C192.625 188.007 204.576 188.239 210.368 189.145C236.771 193.271 251.959 200.24 259.907 203.514C267.856 206.787 263.597 211.908 261.327 215.892ZM355.294 239.153C351.46 248.544 344.435 249.397 338.048 249.397C331.661 249.397 312.498 248.757 305.046 247.688C297.594 246.618 290.354 228.691 286.734 216.957C283.115 205.223 298.445 204.579 298.445 204.579C307.464 204.338 314.934 204.446 321.201 204.809C341.194 205.734 355.681 208.736 360.83 214.182C362.691 216.154 362.347 219.881 361.05 224.286C360.074 228.948 357.288 234.29 355.294 239.153Z" fill="#221923"/>
<path opacity="0.3" d="M298.444 204.581C298.444 204.581 283.114 205.222 286.734 216.959C290.354 228.697 297.594 246.622 305.046 247.69C312.498 248.757 331.658 249.399 338.047 249.399C344.436 249.399 351.46 248.546 355.294 239.155C359.128 229.763 364.662 218.242 360.83 214.186C353.886 206.838 329.956 203.941 298.444 204.581Z" fill="white"/>
<path d="M79.7012 415.997C85.7943 415.997 93.0796 413.95 100.124 411.968C104.095 410.851 108.2 409.698 112.218 408.87C117.524 407.774 123.924 405.183 129.574 402.896C134.405 400.939 138.578 399.25 142.215 398.382C144.3 397.882 147.742 396.448 151.633 394.467C151.746 394.347 151.86 394.231 151.972 394.117C151.981 391.627 151.881 388.122 151.822 386.12C151.727 382.828 151.678 380.898 151.743 379.534C151.743 379.462 151.743 379.371 151.743 379.258C151.205 377.828 150.96 376.304 151.024 374.777C151.024 374.677 151.066 372.254 146.047 366.576C141.713 361.67 135.535 356.508 130.084 352.067C127.511 349.971 125.18 347.593 123.132 344.98C121.616 344.436 120.232 343.576 119.073 342.455C113.504 337.083 109.454 329.891 107.358 321.66C105.522 314.365 105.227 306.766 106.49 299.35C106.615 298.619 107.123 294.28 104.855 280.508C103.602 272.909 102.021 265.563 101.208 261.945C99.9252 259.095 98.987 258.049 97.6281 256.544C95.822 254.546 93.3487 251.806 91.0877 246.666L90.7087 245.792C86.1108 235.378 78.42 217.951 85.9573 198.883C87.7405 194.318 90.5258 190.215 94.1068 186.877C93.6273 175.479 92.9905 149.435 95.695 125.697C51.6726 164.801 23.917 221.9 23.917 285.498C23.917 334.76 40.5723 380.121 68.544 416.241C72.9238 416.085 76.7711 415.997 79.7012 415.997Z" fill="#7354FF"/>
<path d="M374.218 129.87C386.793 162.833 382.54 193.926 380.645 203.882C381.421 204.768 382.087 205.745 382.629 206.792C385.243 211.832 385.08 218.057 382.178 223.87C380.956 226.291 378.957 228.231 376.504 229.379C376.329 232.219 376.246 234.337 376.246 235.955C376.246 242.984 375.298 248.723 373.403 253.103C373.35 255.812 373.31 258.251 373.282 260.39C373.57 261.404 373.715 262.452 373.714 263.506C373.714 264.505 373.644 288.25 367.617 312.081C363.232 329.421 358.368 343.184 347.698 358.201C344.105 363.22 340.19 368 335.978 372.51C335.827 379.596 336.683 391.664 338.264 403.946C338.421 405.18 338.674 406.4 339.022 407.595C351.195 409.069 362.494 410.71 370.27 415.115C370.867 415.454 371.458 415.792 372.044 416.13C379.081 420.168 384.236 423.124 399.406 423.333C430.819 386.148 449.764 338.04 449.764 285.502C449.764 218.386 418.853 158.507 370.522 119.384C371.716 123.003 372.935 126.506 374.218 129.87Z" fill="#7354FF"/>
</g>
</svg>
