<!-- <svg preserveAspectRatio="none" width="100%" height="100%" viewBox="0 0 411 100" fill="none" xmlns="http://www.w3.org/2000/svg">
<path d="M154.5 0.281142C74 4.2809 0 99.7811 0 99.7811H411V29.459C411 29.459 407.176 36.2803 366.5 36.2812C325.824 36.282 235 -3.71861 154.5 0.281142Z" fill="white"/>
</svg> -->

<svg preserveAspectRatio="none" width="100%" height="100%" xmlns="http://www.w3.org/2000/svg" viewBox="0 0 1552 478.89" fill="#fff"><g><g id="Layer_2-2" data-name="Layer 2"><path d="M0,478.89c23.45-36.89,68.84-107.3,112-167,8.16-11.29,18.11-24.78,31-41,16.33-20.55,36.79-46.14,67-76,5-4.94,23.58-23.17,50-45a763,763,0,0,1,63-47c27.54-18.29,49.37-30,55-33,19.49-10.37,34.76-17.15,48-23,18.9-8.35,37.9-16.75,60-24,34.66-11.38,62.36-15.16,84-18a571.25,571.25,0,0,1,132-2c30,3.09,57,9.39,111,22,63.7,14.87,63.73,17.62,113,29,63,14.54,112.57,21.49,159,28,60.87,8.53,102.83,12,116,13,44.2,3.46,72.32,3.93,88,4,20.1.09,39.22.13,65-2,42.51-3.51,70.84-10.25,78-12,15.36-3.76,29.26-7.23,47-15,15.37-6.74,30.65-13.59,46-28a125.1,125.1,0,0,0,27-37v474Z"/></g></g></svg>
