<svg width="232" height="29" viewBox="0 0 232 29" fill="none" xmlns="http://www.w3.org/2000/svg">
<g clip-path="url(#clip0)">
<path d="M7.84112 4.25982C7.78244 4.6224 7.7227 4.99077 7.65422 5.36492C11.3804 6.33424 15.0133 6.34959 18.7017 5.34957C18.64 5.02027 18.5759 4.69144 18.5092 4.36313C18.3629 3.63324 18.2215 2.9278 18.1397 2.21491C18.0511 1.47464 17.6804 0.974039 17.0275 0.766243C16.1019 0.451947 15.1494 0.223122 14.1821 0.0826397C12.6059 -0.11217 11.0262 0.0200646 9.55154 0.67179C9.08754 0.878406 8.50075 1.27393 8.37088 1.70487C8.12282 2.52118 7.9848 3.37314 7.84112 4.25982Z" fill="#7B8993"/>
<path fill-rule="evenodd" clip-rule="evenodd" d="M8.30596 22.0016C10.2422 23.8045 11.9613 25.7939 13.1762 28.291C14.7181 25.4244 16.8008 23.1622 19.1244 21.0996L19.1318 21.093C19.9816 20.3392 20.0036 20.3197 19.4644 19.2767C19.2176 18.8021 19.2412 18.4479 19.6899 18.1834C19.8686 18.0784 20.047 17.9726 20.2256 17.8669C21.0413 17.3834 21.8585 16.8988 22.71 16.4891C23.2719 16.2191 23.8678 16.0204 24.4862 15.8142C24.7683 15.7201 25.0549 15.6244 25.3453 15.5198C24.0288 14.1396 22.4574 13.2199 20.7549 12.2506C20.9082 12.211 21.0455 12.1761 21.1721 12.1438C21.4198 12.0808 21.6265 12.0281 21.8328 11.9719C23.0867 11.6307 24.3275 11.2458 25.3901 10.4501C26.6074 9.53386 26.6204 8.44175 25.3795 7.5657C23.5481 6.27429 21.4147 5.89353 19.2255 5.50285C19.0791 5.47663 18.9324 5.45042 18.7855 5.42398C18.8776 6.0084 18.9555 6.50546 19.0594 7.169C18.6558 7.23865 18.2554 7.31457 17.8567 7.39013C16.9784 7.55661 16.1084 7.72143 15.2305 7.81482C12.7574 8.09038 10.2544 7.89529 7.85376 7.23983C7.44407 7.12767 7.22683 6.98835 7.3815 6.51609C7.45234 6.29908 7.4802 6.06803 7.5122 5.80368C7.52767 5.67546 7.54408 5.53945 7.56686 5.39328C7.22778 5.46684 6.89837 5.53614 6.57617 5.60403C5.87415 5.75185 5.20554 5.89258 4.54201 6.05445C3.23502 6.37559 1.96699 6.80535 0.881958 7.63181C-0.223142 8.4689 -0.240852 9.52323 0.861886 10.358C1.34491 10.7282 1.87593 11.0313 2.44043 11.2588C3.13454 11.5301 3.84388 11.7568 4.57672 11.9911C4.88357 12.0892 5.19444 12.1886 5.51015 12.2931L5.31888 12.404C3.77588 13.2991 2.25247 14.1828 0.988217 15.5434L1.63404 15.75C3.24682 16.2813 4.84426 16.841 6.23862 17.8375C7.23486 18.5473 7.23156 18.5541 6.71301 19.6194L6.71088 19.6238C6.66769 19.7335 6.61597 19.8397 6.55622 19.9414C6.36377 20.2212 6.40863 20.4066 6.69081 20.6238C7.25045 21.0571 7.78883 21.5188 8.30596 22.0016ZM8.47916 12.8257C9.37434 14.3499 11.1799 14.5643 11.9648 13.3639C11.7832 13.3437 11.6026 13.3258 11.4227 13.3078C11.0326 13.269 10.646 13.2304 10.2623 13.1715C9.87317 13.1116 9.47316 13.0291 9.05084 12.942C8.86488 12.9036 8.67468 12.8643 8.47916 12.8257ZM14.3757 13.4147C15.3392 14.5954 17.1054 14.3014 17.8162 12.8799L14.3757 13.4147Z" fill="#7B8993"/>
<path d="M40.6353 10.2982H38.486V7.2403H46.6288V10.2982H44.4795V18.8953H40.6353V10.2982ZM42.7846 17.4974V9.05758H45.2833V8.63821H39.8315V9.05758H42.3303V17.4974H42.7846ZM47.2372 7.2403H50.9591V11.2069H53.0385V7.2403H56.7779V18.8953H53.0385V14.5793H50.9591V18.8953H47.2372V7.2403ZM49.4389 17.4974V13.0766H54.5762V17.4974H55.0305V8.63821H54.5762V12.6572H49.4389V8.63821H48.9846V17.4974H49.4389ZM58.0047 7.2403H64.8719V10.2982H61.7267V11.5913H64.8195V14.4919H61.7267V15.8374H64.9942V18.8953H58.0047V7.2403ZM63.7012 17.4974V17.0781H60.2064V13.2513H63.5264V12.8319H60.2064V9.05758H63.7012V8.63821H59.7521V17.4974H63.7012ZM70.6934 17.3751C70.8566 17.4101 71.0313 17.4391 71.2176 17.4625C71.3808 17.4857 71.5496 17.509 71.7244 17.5324C71.9108 17.5439 72.0972 17.5498 72.2835 17.5498C72.6098 17.5498 72.9243 17.5149 73.2271 17.445C73.5417 17.3634 73.8213 17.2353 74.066 17.0606C74.3083 16.8884 74.506 16.6607 74.6425 16.3966C74.794 16.117 74.8697 15.7791 74.8697 15.3831C74.8697 15.0452 74.7824 14.7249 74.6077 14.422C74.4445 14.1191 74.229 13.8279 73.9611 13.5483C73.6988 13.2629 73.4186 12.9945 73.1223 12.7446C72.8375 12.494 72.5578 12.2377 72.2835 11.9757C72.0273 11.7077 71.8117 11.4456 71.637 11.1894C71.474 10.9214 71.3925 10.6477 71.3925 10.3681C71.3925 9.94874 71.5264 9.62831 71.7944 9.40706C72.0623 9.17399 72.4932 9.05758 73.0873 9.05758C73.1806 9.05758 73.2738 9.06348 73.367 9.07505C73.4719 9.07505 73.5708 9.08096 73.6641 9.09253C73.7572 9.10422 73.8504 9.11 73.9435 9.11V8.65568C73.8621 8.65568 73.7747 8.64978 73.6816 8.63821C73.5889 8.62584 73.4954 8.62 73.4019 8.62073C73.3033 8.60876 73.2041 8.60293 73.1048 8.60326C72.4757 8.60326 71.9574 8.74884 71.5496 9.04011C71.142 9.31969 70.9381 9.76232 70.9381 10.3681C70.9381 10.6943 71.0196 11.003 71.1828 11.2942C71.3575 11.5738 71.573 11.8534 71.8292 12.133C72.1004 12.4039 72.3801 12.6661 72.668 12.9193C72.9612 13.1664 73.2412 13.4289 73.5067 13.7056C73.7747 13.9618 73.9902 14.2298 74.1532 14.5094C74.328 14.789 74.4155 15.0801 74.4155 15.3831C74.4155 15.9423 74.2231 16.3674 73.8387 16.6587C73.466 16.9498 72.9475 17.0955 72.2835 17.0955C71.8875 17.0955 71.5264 17.0664 71.2002 17.0082C71.0302 16.9856 70.8611 16.9565 70.6934 16.9208V17.3751ZM69.2256 15.2783C69.4887 15.3614 69.7573 15.4256 70.0295 15.4705C70.2625 15.5287 70.5246 15.5753 70.8157 15.6103C71.1174 15.6451 71.4207 15.6626 71.7244 15.6627C72.2603 15.6627 72.5283 15.4646 72.5283 15.0686C72.5283 14.9171 72.4467 14.7656 72.2835 14.6142C72.1205 14.4511 71.9108 14.2763 71.6545 14.09C71.3872 13.8737 71.1193 13.6582 70.8508 13.4435C70.5712 13.2104 70.3032 12.9425 70.047 12.6397C69.8024 12.3368 69.5985 11.999 69.4353 11.6262C69.2723 11.2418 69.1908 10.805 69.1908 10.3157C69.1908 9.7681 69.2897 9.28474 69.4877 8.86537C69.6858 8.446 69.9595 8.09652 70.309 7.81694C70.6585 7.53736 71.0663 7.32767 71.5322 7.18788C72.0099 7.0364 72.5166 6.96072 73.0525 6.96072C73.3321 6.96072 73.6117 6.9782 73.8912 7.01315C74.1708 7.0364 74.4212 7.05978 74.6425 7.08304C74.8988 7.11799 75.1492 7.15294 75.3939 7.18788V10.4555C75.3007 10.4438 75.1959 10.4322 75.0793 10.4205C74.9862 10.4088 74.8813 10.3972 74.7648 10.3856C74.6429 10.3737 74.5205 10.3678 74.398 10.3681C74.3281 10.3681 74.2406 10.374 74.1358 10.3856C74.0309 10.3856 73.932 10.3973 73.8387 10.4205C73.7489 10.4421 73.6652 10.484 73.5941 10.5429C73.5242 10.6011 73.4892 10.6826 73.4892 10.7875C73.4892 10.8808 73.565 10.9972 73.7164 11.137C73.9079 11.3009 74.1002 11.464 74.2931 11.6262C74.5261 11.8125 74.7765 12.0281 75.0445 12.2728C75.3276 12.5213 75.5798 12.8029 75.7958 13.1115C76.0288 13.426 76.221 13.7813 76.3725 14.1774C76.5356 14.5734 76.617 15.0161 76.617 15.5054C76.617 16.0179 76.5356 16.5014 76.3725 16.9557C76.2094 17.3984 75.953 17.7886 75.6036 18.1265C75.2658 18.4526 74.8289 18.7089 74.2931 18.8953C73.7572 19.0933 73.1223 19.1924 72.3884 19.1924C71.9458 19.1924 71.5322 19.169 71.1477 19.1225C70.775 19.0875 70.443 19.0409 70.1517 18.9827C69.8139 18.9244 69.5052 18.8545 69.2256 18.773V15.2783ZM86.4757 11.6787C86.4757 12.4824 86.3359 13.1697 86.0563 13.7406C85.7767 14.2997 85.3923 14.754 84.903 15.1035C84.4255 15.453 83.8605 15.7092 83.2081 15.8724C82.5675 16.0354 81.8743 16.117 81.1287 16.117V18.8953H77.4068V7.2403H81.1287C81.8743 7.2403 82.5675 7.32177 83.2081 7.48494C83.8605 7.64799 84.4255 7.90431 84.903 8.25378C85.3923 8.60326 85.7767 9.06336 86.0563 9.63422C86.3359 10.1934 86.4757 10.8749 86.4757 11.6787ZM84.7807 11.6787C84.7807 11.1544 84.6876 10.7001 84.5011 10.3157C84.3264 9.93127 84.076 9.61674 83.7498 9.37211C83.4237 9.12747 83.0333 8.94683 82.579 8.83042C82.1364 8.70232 81.6529 8.63821 81.1287 8.63821H79.1542V17.4974H79.6085V14.7191H81.1287C81.6529 14.7191 82.1364 14.6608 82.579 14.5444C83.0333 14.4161 83.4237 14.2298 83.7498 13.9852C84.076 13.7406 84.3264 13.426 84.5011 13.0416C84.6876 12.6572 84.7807 12.2029 84.7807 11.6787ZM84.2915 11.6787C84.2915 12.1795 84.2041 12.5989 84.0294 12.9368C83.8546 13.2746 83.6217 13.5424 83.3304 13.7406C83.0392 13.9386 82.7013 14.0841 82.3169 14.1774C81.9442 14.2589 81.5481 14.2997 81.1287 14.2997H79.6085V9.05758H81.1287C81.5481 9.05758 81.9442 9.10422 82.3169 9.19737C82.7013 9.27884 83.0392 9.41863 83.3304 9.61674C83.6217 9.81474 83.8546 10.0827 84.0294 10.4205C84.2041 10.7583 84.2915 11.1777 84.2915 11.6787ZM81.1287 12.9717H81.286C81.7752 12.9717 82.1247 12.861 82.3344 12.6397C82.5558 12.4066 82.6664 12.0863 82.6664 11.6787C82.6664 11.271 82.5558 10.9564 82.3344 10.7351C82.1247 10.502 81.7752 10.3856 81.286 10.3856H81.1287V12.9717ZM90.8151 7.2403H93.6109L98.0318 18.8953H94.3623L93.9778 17.8469H90.4481L90.0637 18.8953H86.3942L90.8151 7.2403ZM92.9993 15.2783L92.213 13.2338L91.4267 15.2783H92.9993ZM88.9978 17.4974L89.3298 16.6237H95.0962L95.4282 17.4974H95.9174L92.545 8.63821H91.881L88.5085 17.4974H88.9978ZM92.213 9.05758L94.9389 16.2044H89.4871L92.213 9.05758ZM105.72 11.2069C105.51 11.0204 105.248 10.8806 104.934 10.7875C104.619 10.6826 104.31 10.6302 104.007 10.6302C103.67 10.6302 103.361 10.6943 103.081 10.8224C102.804 10.9376 102.554 11.1103 102.347 11.3292C102.149 11.5389 101.992 11.7952 101.876 12.098C101.759 12.4009 101.701 12.7271 101.701 13.0766C101.701 13.426 101.765 13.7521 101.893 14.0551C102.021 14.3579 102.196 14.62 102.417 14.8414C102.639 15.0511 102.895 15.2199 103.186 15.3481C103.489 15.4646 103.809 15.5229 104.147 15.5229C104.543 15.5229 104.904 15.4413 105.231 15.2783C105.555 15.1049 105.84 14.8671 106.069 14.5793H105.021V12.133H109.512V16.0122C109.246 16.4866 108.923 16.9267 108.551 17.3227C108.177 17.7081 107.754 18.043 107.293 18.3187C106.838 18.5983 106.343 18.8137 105.807 18.9652C105.271 19.1166 104.718 19.1924 104.147 19.1924C103.309 19.1924 102.516 19.0351 101.771 18.7206C101.025 18.4061 100.373 17.975 99.8137 17.4275C99.2662 16.8799 98.8293 16.2334 98.5032 15.4879C98.1887 14.7424 98.0314 13.9386 98.0314 13.0766C98.0314 12.2378 98.1828 11.4456 98.4857 10.7001C98.7886 9.95453 99.2021 9.30812 99.7264 8.76052C100.262 8.20136 100.891 7.76452 101.614 7.44999C102.347 7.12377 103.134 6.96072 103.973 6.96072C104.625 6.96072 105.19 7.02472 105.667 7.15294C106.145 7.28104 106.547 7.42673 106.873 7.58978C107.258 7.77609 107.578 7.97999 107.834 8.20136L105.72 11.2069ZM105.895 8.95274C105.743 8.88284 105.574 8.82464 105.388 8.778C105.225 8.73136 105.032 8.69063 104.811 8.65568C104.59 8.62073 104.345 8.60326 104.077 8.60326C103.46 8.60326 102.883 8.71389 102.347 8.93526C101.812 9.15652 101.346 9.46538 100.95 9.86138C100.553 10.2458 100.239 10.7118 100.006 11.2593C99.7846 11.8068 99.6739 12.4125 99.6739 13.0766C99.6739 13.7406 99.7904 14.3462 100.023 14.8938C100.256 15.4413 100.577 15.9131 100.984 16.3092C101.392 16.6936 101.864 16.9965 102.4 17.2178C102.947 17.4391 103.53 17.5498 104.147 17.5498C104.951 17.5498 105.679 17.3634 106.331 16.9907C106.984 16.6063 107.514 16.0995 107.922 15.4705V13.1814H106.069V13.6008H107.467V15.3481C107.106 15.8839 106.634 16.3092 106.052 16.6237C105.481 16.9383 104.846 17.0955 104.147 17.0955C103.588 17.0955 103.064 17.0023 102.575 16.8159C102.103 16.6218 101.671 16.3436 101.299 15.9947C100.938 15.6335 100.652 15.2084 100.443 14.7191C100.233 14.2181 100.128 13.6707 100.128 13.0766C100.128 12.4824 100.227 11.9408 100.425 11.4515C100.635 10.9505 100.915 10.5254 101.264 10.1759C101.621 9.8172 102.05 9.53742 102.522 9.35463C103 9.15664 103.518 9.05758 104.077 9.05758C104.287 9.05758 104.485 9.07505 104.671 9.11C104.858 9.14495 105.021 9.1799 105.161 9.21484C105.324 9.26136 105.475 9.30812 105.615 9.35463L105.895 8.95274ZM110.477 7.2403H114.199V11.2069H116.279V7.2403H120.018V18.8953H116.279V14.5793H114.199V18.8953H110.477V7.2403ZM112.679 17.4974V13.0766H117.816V17.4974H118.27V8.63821H117.816V12.6572H112.679V8.63821H112.225V17.4974H112.679ZM121.245 7.2403H128.112V10.2982H124.967V11.5913H128.059V14.4919H124.967V15.8374H128.234V18.8953H121.245V7.2403ZM126.941 17.4974V17.0781H123.446V13.2513H126.766V12.8319H123.446V9.05758H126.941V8.63821H122.992V17.4974H126.941ZM130.82 10.2982H128.671V7.2403H136.814V10.2982H134.664V18.8953H130.82V10.2982ZM132.97 17.4974V9.05758H135.468V8.63821H130.016V9.05758H132.515V17.4974H132.97Z" fill="#7B8993"/>
<path d="M138.959 10.2982H136.81V7.2403H144.953V10.2982H142.803V18.8953H138.959V10.2982ZM141.109 17.4974V9.05758H143.607V8.63821H138.155V9.05758H140.655V17.4974H141.109ZM145.561 7.2403H149.511V18.8953H145.561V7.2403ZM147.763 17.4974V8.63821H147.309V17.4974H147.763ZM154.23 18.8953V7.2403H157.462C158.558 7.2403 159.531 7.36262 160.381 7.60725C161.243 7.85189 161.966 8.21884 162.548 8.7081C163.141 9.19737 163.59 9.80895 163.894 10.5429C164.208 11.2651 164.365 12.1038 164.365 13.0591C164.365 14.0142 164.208 14.8589 163.894 15.5928C163.59 16.315 163.141 16.9208 162.548 17.4101C161.966 17.8993 161.243 18.2721 160.381 18.5284C159.531 18.773 158.558 18.8953 157.462 18.8953H154.23ZM156.432 17.0781V9.05758H157.462C158.942 9.05758 160.089 9.39537 160.905 10.0711C161.732 10.7351 162.146 11.7311 162.146 13.0591C162.146 14.3871 161.732 15.3889 160.905 16.0646C160.089 16.7401 158.942 17.0781 157.462 17.0781H156.432ZM155.977 17.4974H157.462C159.164 17.4974 160.445 17.113 161.307 16.3442C162.18 15.5636 162.617 14.4686 162.617 13.0591C162.617 11.6495 162.18 10.5603 161.307 9.79148C160.445 9.02263 159.164 8.63821 157.462 8.63821H155.977V17.4974ZM157.952 15.5753C158.826 15.5753 159.501 15.3714 159.978 14.9637C160.457 14.5444 160.695 13.9094 160.695 13.0591C160.695 12.2086 160.457 11.5797 159.978 11.1719C159.501 10.7642 158.826 10.5603 157.952 10.5603V15.5753ZM165.322 7.2403H172.189V10.2982H169.044V11.5913H172.137V14.4919H169.044V15.8374H172.312V18.8953H165.322V7.2403ZM171.019 17.4974V17.0781H167.524V13.2513H170.844V12.8319H167.524V9.05758H171.019V8.63821H167.07V17.4974H171.019ZM174.897 10.2982H172.747V7.2403H180.89V10.2982H178.742V18.8953H174.897V10.2982ZM177.046 17.4974V9.05758H179.544V8.63821H174.093V9.05758H176.592V17.4974H177.046ZM181.498 7.2403H188.366V10.2982H185.221V11.5913H188.313V14.4919H185.221V15.8374H188.488V18.8953H181.498V7.2403ZM187.195 17.4974V17.0781H183.7V13.2513H187.02V12.8319H183.7V9.05758H187.195V8.63821H183.246V17.4974H187.195ZM191.476 13.0766C191.476 12.5174 191.568 11.9932 191.755 11.5039C191.953 11.0146 192.227 10.5894 192.577 10.2283C192.926 9.86716 193.351 9.58179 193.852 9.37211C194.353 9.16242 194.912 9.05758 195.529 9.05758C195.833 9.05758 196.101 9.08084 196.333 9.12748C196.578 9.16242 196.782 9.20894 196.945 9.26727C197.143 9.32547 197.312 9.39537 197.451 9.47695L197.696 9.05758C197.501 8.97287 197.303 8.89707 197.102 8.83042C196.904 8.77221 196.677 8.71967 196.421 8.67316C196.165 8.62652 195.867 8.60326 195.529 8.60326C194.935 8.60326 194.364 8.7081 193.817 8.91779C193.285 9.1249 192.798 9.4335 192.384 9.82643C191.977 10.2109 191.645 10.6826 191.389 11.2418C191.143 11.7893 191.022 12.4009 191.022 13.0766C191.022 13.7638 191.137 14.3812 191.371 14.9288C191.615 15.4763 191.947 15.948 192.366 16.3442C192.787 16.7286 193.275 17.0256 193.835 17.2353C194.394 17.445 194.987 17.5498 195.617 17.5498C195.966 17.5498 196.281 17.5207 196.56 17.4625C196.84 17.4042 197.078 17.3402 197.277 17.2703C197.499 17.1887 197.696 17.0955 197.871 16.9907L197.626 16.5713C197.475 16.6762 197.3 16.7635 197.102 16.8334C196.927 16.9033 196.718 16.9673 196.473 17.0256C196.228 17.0722 195.943 17.0955 195.617 17.0955C194.976 17.0955 194.399 16.9907 193.887 16.781C193.375 16.5713 192.938 16.2858 192.577 15.9248C192.227 15.5636 191.953 15.1385 191.755 14.6492C191.568 14.1599 191.476 13.6357 191.476 13.0766ZM189.274 13.0766C189.274 12.1445 189.437 11.3058 189.763 10.5603C190.089 9.80317 190.532 9.15652 191.091 8.62073C191.651 8.08483 192.303 7.67715 193.049 7.39757C193.794 7.1063 194.586 6.96072 195.424 6.96072C196.089 6.96072 196.677 7.02472 197.189 7.15294C197.714 7.28104 198.162 7.42673 198.535 7.58978C198.966 7.77609 199.339 7.97999 199.653 8.20136L197.819 11.434C197.623 11.2882 197.419 11.154 197.207 11.0321C197.009 10.9388 196.77 10.8515 196.49 10.77C196.222 10.6767 195.914 10.6302 195.565 10.6302C195.204 10.6302 194.872 10.6943 194.568 10.8224C194.271 10.9474 193.999 11.125 193.764 11.3466C193.543 11.5679 193.369 11.83 193.24 12.133C193.113 12.4241 193.049 12.7386 193.049 13.0766C193.049 13.4143 193.113 13.7347 193.24 14.0376C193.378 14.3258 193.568 14.5863 193.8 14.8065C194.032 15.0277 194.306 15.2025 194.621 15.3307C194.935 15.4588 195.279 15.5229 195.652 15.5229C196.024 15.5229 196.357 15.4763 196.647 15.3831C196.939 15.2898 197.183 15.185 197.382 15.0686C197.614 14.9403 197.819 14.789 197.993 14.6142L199.828 17.8469C199.514 18.1031 199.141 18.3303 198.71 18.5284C198.337 18.6914 197.888 18.8429 197.364 18.9827C196.84 19.1225 196.24 19.1924 195.565 19.1924C194.656 19.1924 193.817 19.0467 193.049 18.7555C192.279 18.4526 191.615 18.0332 191.056 17.4974C190.497 16.9615 190.061 16.3208 189.745 15.5753C189.431 14.818 189.274 13.9852 189.274 13.0766Z" fill="#7B8993"/>
<path d="M201.807 10.2982H199.658V7.2403H207.801V10.2982H205.651V18.8953H201.807V10.2982ZM203.957 17.4974V9.05757H206.455V8.6382H201.003V9.05757H203.502V17.4974H203.957ZM208.409 7.2403H212.359V18.8953H208.409V7.2403ZM210.611 17.4974V8.6382H210.157V17.4974H210.611ZM216.69 7.2403L218.664 12.3077L220.656 7.2403H224.728L220.185 18.8953H217.161L212.618 7.2403H216.69ZM218.857 17.4974L222.316 8.6382H221.827L218.664 16.6936L215.519 8.6382H215.03L218.49 17.4974H218.857ZM224.995 7.2403H231.863V10.2982H228.718V11.5913H231.81V14.4919H228.718V15.8374H231.985V18.8953H224.995V7.2403ZM230.692 17.4974V17.078H227.197V13.2513H230.517V12.8319H227.197V9.05757H230.692V8.6382H226.743V17.4974H230.692Z" fill="#7B8993"/>
</g>
<defs>
<clipPath id="clip0">
<rect width="232" height="28.3359" fill="white"/>
</clipPath>
</defs>
</svg>
