<svg width="160" height="160" viewBox="0 0 160 160" fill="none" xmlns="http://www.w3.org/2000/svg">
<circle cx="80" cy="80" r="80" fill="#7354FF"/>
<path d="M60.2344 43.2252L56.9209 36.0445C56.6803 35.523 57.3649 35.0736 57.7477 35.5018L67.3813 46.2772C67.6189 46.5429 67.51 46.9648 67.1735 47.0824L63.4778 48.3742C63.1917 48.4742 63.0597 48.8038 63.1975 49.0737L67.2141 56.9356C67.48 57.4562 66.7894 57.932 66.3977 57.4982L56.026 46.0117C55.7864 45.7463 55.8946 45.3226 56.2321 45.2046L59.9454 43.9067C60.2239 43.8093 60.358 43.4931 60.2344 43.2252Z" fill="white"/>
<path d="M101.406 43.7977L105.711 37.1516C106.023 36.6705 106.773 37.0082 106.616 37.5591L102.675 51.4188C102.578 51.7587 102.166 51.8924 101.885 51.6749L98.7903 49.2801C98.5513 49.0952 98.2038 49.1605 98.0505 49.4193L93.5469 57.0208C93.2496 57.5226 92.4746 57.1939 92.6312 56.6325L96.777 41.7725C96.8722 41.4311 97.2859 41.2959 97.5678 41.514L100.677 43.92C100.91 44.1001 101.247 44.0435 101.406 43.7977Z" fill="white"/>
<path d="M81.0994 38.1526L82.2795 29.6201C82.3579 29.0536 83.1777 29.0404 83.2713 29.6042L85.8365 45.0539C85.8954 45.4087 85.5681 45.7078 85.2174 45.6196L81.0359 44.5683C80.7378 44.4934 80.4419 44.7006 80.4124 45.0051L79.4841 54.5843C79.4279 55.1638 78.5885 55.1963 78.4904 54.6228L75.6592 38.0814C75.5984 37.7258 75.9262 37.4248 76.278 37.5133L80.4782 38.5692C80.7684 38.6422 81.0586 38.4476 81.0994 38.1526Z" fill="white"/>
<ellipse cx="80.3699" cy="84.2856" rx="15.4309" ry="15.3156" fill="white"/>
<path fill-rule="evenodd" clip-rule="evenodd" d="M110.189 61.9888L110.201 61.9783L128.44 79.5852C131.653 82.6864 131.18 87.9619 127.467 90.4422L99.8018 108.924V127.902C99.8018 127.902 93.121 134.04 80.1777 133.627C67.2344 133.215 59.8827 127.902 59.8827 127.902V108.924L32.5028 90.4552C28.8103 87.9645 28.3523 82.7043 31.5586 79.6128L48.8126 62.9771L48.8369 62.9935C49.7941 61.2013 51.6928 59.9805 53.8788 59.9805C57.0284 59.9805 59.5816 62.5146 59.5816 65.6406C59.5816 67.3098 58.8536 68.8103 57.6955 69.8462L44.4517 83.9528L64.2436 93.6082C64.2436 93.6082 69.2754 102.95 80.1777 103.264C91.08 103.577 96.1118 92.9423 96.1118 92.9423L115.904 83.9528L101.815 69.3031L101.939 69.1945C101.03 68.1806 100.473 66.8127 100.473 65.3076C100.473 62.1816 102.876 59.6475 105.84 59.6475C107.629 59.6475 109.213 60.5702 110.189 61.9888Z" fill="white"/>
</svg>
