<svg width="160" height="160" viewBox="0 0 160 160" fill="none" xmlns="http://www.w3.org/2000/svg">
<circle cx="80" cy="80" r="80" fill="#7354FF"/>
<path d="M60.9567 52.056C60.1071 52.0943 59.2476 52.1339 58.4951 52.0764C59.7054 51.5501 60.5536 50.3185 60.5536 48.8825V42.1931C59.8832 42.883 58.7762 43.6687 57.2363 43.6853C55.6965 43.7019 54.878 43.3659 53.8046 42.6594V48.8825C53.8046 50.0834 54.4004 51.1413 55.3034 51.7634C55.4054 51.95 55.5211 52.1212 55.6616 52.2732C56.8172 53.5316 58.9491 53.4281 61.0114 53.331C62.7938 53.248 64.6309 53.1573 65.0737 54.1027C64.9332 54.3454 64.0128 54.8922 58.5175 54.7019C57.6793 54.6724 55.8869 55.6537 56.4273 55.6537L45.4766 61.6033L45.4629 61.7681V71.6576L56.8534 75.2335L68.8635 68.8252L68.8374 59.3676L68.7938 58.9613L58.0961 56.3167C57.9045 56.1219 57.5682 56.1219 57.7849 55.9603C57.9292 55.9603 58.168 55.9692 58.4764 55.9794C62.5139 56.1187 65.3586 55.9756 66.1111 54.8105C66.3524 54.4348 66.3773 53.9813 66.1745 53.529C65.4096 51.8426 63.1483 51.9512 60.9567 52.056ZM56.7821 74.1437L46.2477 71.0162V62.7659L56.7821 65.6903V74.1437Z" fill="white"/>
<path d="M75.9621 34.8077C75.7377 34.502 75.3708 34.281 74.9261 34.1838L65.3101 32.4035V24.0802C65.3101 23.7699 65.0815 23.4862 65.2578 23.3419C65.1279 23.2902 64.4507 23.2667 64.8463 23.2565C64.8442 23.2565 64.3042 23.2549 64.3011 23.2549L62.61 22.943C63.5889 22.6405 64.9035 22.6444 66.0393 22.9987C66.6908 23.1907 67.332 23.5496 68.0095 23.9297C68.9333 24.4478 69.8883 24.9823 71.1114 25.2464C74.9105 25.9416 75.8423 24.7391 78.489 23.4757C78.8319 23.3111 78.9348 22.9679 78.7166 22.7077C78.4994 22.4482 78.0442 22.3706 77.6992 22.5352C75.278 23.692 74.6518 24.7488 71.4896 24.1704C71.4013 24.1508 71.3161 24.1194 71.2288 24.0951C74.9521 24.5395 75.675 23.2884 78.1824 21.9764C78.517 21.8009 78.5991 21.4545 78.3684 21.2021C78.1346 20.9489 77.6764 20.8862 77.3428 21.0618C74.9881 22.2946 74.4543 23.4548 71.261 22.9767C70.3133 22.8043 69.4446 22.3584 68.6018 21.9265C67.8526 21.5425 67.0784 21.1443 66.2419 20.9296C64.2841 20.3904 61.9866 20.6341 60.6544 21.5221C60.2262 21.8074 59.9051 22.1491 59.6931 22.5347L56.1465 22.0386C55.9771 22.0143 55.8015 22.037 55.6508 22.1005L49.3186 25.2378C49.145 25.3107 49.0318 25.433 48.9788 25.5701C48.8967 25.6885 48.8489 25.8201 48.8489 25.9573V29.738L39.6364 28.203C39.4743 28.1685 39.3132 28.1513 39.1501 28.1513C38.3842 28.1513 37.7005 28.5393 37.4885 29.0949C37.3596 29.4304 37.4126 29.7831 37.635 30.0879C37.8584 30.3936 38.2263 30.6146 38.671 30.7118L48.851 32.4552V39.4494C48.851 39.8295 49.1908 40.161 49.6781 40.2574L57.2106 41.9479V30.3392H58.0097V41.9879C58.0305 41.984 58.0513 41.9848 58.0731 41.9801C58.1126 41.9706 58.1458 41.9526 58.1812 41.9401C58.2425 41.9205 58.3017 41.9048 58.3578 41.8758L64.8269 38.2596C65.1283 38.1045 65.3091 37.8466 65.3091 37.5707V35.12L73.9597 36.6918C74.8804 36.8908 75.8488 36.4739 76.1066 35.8006C76.2365 35.466 76.1845 35.1133 75.9621 34.8077ZM57.2345 26.4244L50.9435 25.5004L51.8115 25.4596L56.1423 23.1695L59.3991 23.6006C59.3804 23.9439 59.4209 24.3044 59.5362 24.6821C59.5466 24.7182 59.5716 24.748 59.5903 24.7801C59.5955 24.9901 59.6183 25.2057 59.6682 25.4283L57.2345 26.4244ZM61.0627 24.8585C61.0357 24.4752 61.1033 24.1374 61.2779 23.8498L62.9779 24.0747L61.0627 24.8585Z" fill="white"/>
<path d="M100.814 61.0144C81.9921 81.0705 52.0441 93.7038 39.4229 97.5135L72.8753 124.427C106.695 116.758 128.629 97.1448 135.369 88.2966L100.814 61.0144Z" fill="white" fill-opacity="0.2"/>
<path d="M142.465 58.9111C142.903 58.575 142.986 57.9472 142.65 57.509C142.314 57.0708 141.686 56.9879 141.248 57.324L142.465 58.9111ZM120.069 76.0875L142.465 58.9111L141.248 57.324L118.851 74.5005L120.069 76.0875Z" fill="white"/>
<path d="M132.681 65.1286C133.232 65.1489 133.695 64.7176 133.715 64.1653C133.735 63.6129 133.304 63.1488 132.753 63.1285L132.681 65.1286ZM104.671 63.5149C117.932 64.4594 124.103 64.8131 132.681 65.1286L132.753 63.1285C124.206 62.8141 118.061 62.4621 104.811 61.5185L104.671 63.5149Z" fill="white"/>
<path d="M135.825 63.4828C135.869 62.9318 135.458 62.4492 134.908 62.4049C134.358 62.3606 133.877 62.7714 133.833 63.3224L135.825 63.4828ZM135.619 86.0365C135.053 74.52 135.036 73.4932 135.825 63.4828L133.833 63.3224C133.036 73.435 133.054 74.5493 133.623 86.1321L135.619 86.0365Z" fill="white"/>
<path d="M32.0444 121.965C31.5553 122.22 31.3665 122.825 31.6228 123.314C31.879 123.804 32.4833 123.993 32.9724 123.737L32.0444 121.965ZM55.7507 111.821C56.2398 111.565 56.4286 110.961 56.1723 110.471C55.9161 109.982 55.3118 109.792 54.8227 110.048L55.7507 111.821ZM32.9724 123.737L55.7507 111.821L54.8227 110.048L32.0444 121.965L32.9724 123.737Z" fill="white"/>
<path d="M38.4788 118.877C38.426 119.427 38.8285 119.916 39.3779 119.969C39.9273 120.022 40.4155 119.619 40.4684 119.069L38.4788 118.877ZM42.2954 100.062C42.3483 99.5121 41.9458 99.0232 41.3964 98.9702C40.847 98.9173 40.3587 99.3202 40.3059 99.8703L42.2954 100.062ZM40.4684 119.069L42.2954 100.062L40.3059 99.8703L38.4788 118.877L40.4684 119.069Z" fill="white"/>
<path d="M40.1012 117.917C39.5542 117.847 39.0538 118.234 38.9836 118.783C38.9133 119.331 39.2998 119.833 39.8468 119.904L40.1012 117.917ZM67.0739 123.412C67.6209 123.483 68.1213 123.095 68.1915 122.547C68.2618 121.998 67.8753 121.496 67.3283 121.426L67.0739 123.412ZM39.8468 119.904L67.0739 123.412L67.3283 121.426L40.1012 117.917L39.8468 119.904Z" fill="white"/>
<path d="M65.665 106.123L62.889 106.819C61.2639 107.227 59.554 107.138 57.98 106.564C57.98 106.564 60.1254 109.072 61.9323 108.986C63.7654 108.899 65.665 106.123 65.665 106.123Z" fill="white"/>
<ellipse cx="111.557" cy="81.9004" rx="7.02634" ry="7.04675" fill="white"/>
<path fill-rule="evenodd" clip-rule="evenodd" d="M67.8613 91.3693L92.6731 83.2215L97.6339 72.6289C98.525 70.7263 101.045 70.3053 102.507 71.815L106.726 76.1747C106.726 76.1747 105.188 77.2062 104.53 78.1566C103.849 79.1407 103.432 81.0194 103.432 81.0194L102.334 79.6981L100.803 81.7445L102.027 82.1246C102.913 82.3998 103.622 83.0697 103.947 83.939L104.75 86.0842L106.592 88.0858C107.102 88.6396 107.384 89.3648 107.384 90.1174V90.8303L110.019 93.131V89.6076C110.019 89.6076 111.738 90.048 113.093 90.048C114.449 90.048 116.387 88.5066 116.387 88.5066L117.224 97.7395C117.435 100.067 115.021 101.731 112.921 100.707L101.456 95.1129L85.6467 100.178L59.9566 106.123L59.9508 106.097C59.8089 106.115 59.6642 106.124 59.5172 106.124C57.6982 106.124 56.2236 104.743 56.2236 103.041C56.2236 101.375 57.6355 100.017 59.4004 99.9596L61.7132 99.2969L67.8613 91.3693ZM79.0595 94.893L79.4987 94.9931L75.0259 96.4345H74.2289L79.0595 94.893Z" fill="white"/>
<path fill-rule="evenodd" clip-rule="evenodd" d="M100.24 57.6206C100.061 57.3928 99.8194 57.2002 99.5339 57.0586L99.48 57.0157L99.4683 57.0273C99.1477 56.8804 98.7765 56.7964 98.3808 56.7964C97.1681 56.7964 96.1851 57.5851 96.1851 58.5581C96.1851 59.0154 96.4022 59.432 96.7584 59.7451L96.6255 59.8784L136.638 91.7195C137 92.1797 137.532 92.4703 138.124 92.4703C139.215 92.4703 140.1 91.4844 140.1 90.2682C140.1 89.8793 140.01 89.514 139.851 89.1969L139.881 89.1665L139.801 89.1024C139.527 88.6147 139.087 88.255 138.569 88.1222L100.24 57.6206Z" fill="white"/>
<path fill-rule="evenodd" clip-rule="evenodd" d="M36.5687 93.3008C36.3879 93.0682 36.1413 92.8719 35.8499 92.7287L35.8018 92.6904L35.7913 92.7009C35.4709 92.5542 35.0999 92.4703 34.7045 92.4703C33.4919 92.4703 32.5088 93.2591 32.5088 94.232C32.5088 94.6891 32.7257 95.1055 33.0815 95.4186L32.9473 95.5532L72.9643 127.398C73.3265 127.856 73.8566 128.144 74.4472 128.144C75.5386 128.144 76.4233 127.159 76.4233 125.942C76.4233 125.553 76.3328 125.188 76.1739 124.871L76.2032 124.841L76.1257 124.779C75.8516 124.289 75.4095 123.928 74.8892 123.796L36.5687 93.3008Z" fill="white"/>
</svg>
