<svg width="160" height="160" viewBox="0 0 160 160" fill="none" xmlns="http://www.w3.org/2000/svg">
<circle cx="80" cy="80" r="80" fill="#7354FF"/>
<g filter="url(#filter0_d)">
<path d="M62.1378 120.163C56.9738 120.385 51.8906 118.947 46.8713 120.641C44.3422 121.494 42.8315 124.444 46.4342 125.331C48.5618 125.854 50.4596 124.741 52.1354 123.596C54.1866 122.195 57.9818 126.952 60.185 125.772C62.6734 124.44 63.8831 118.009 66.6485 117.815C68.1605 117.708 69.2119 117.9 70.5725 118.319C71.9759 118.751 73.1293 119.677 74.2175 120.608C76.1743 122.282 77.9983 123.494 80.3806 124.568C82.785 125.651 83.4938 122.555 86.209 122.364C89.2193 122.153 93.9302 126.13 96.9018 125.624C99.1508 125.24 101.2 124.733 103.383 124.101C106.233 123.277 109.318 126.635 111.819 125.155C114.512 123.56 119.116 124.92 116.721 122.009C115.972 121.098 112.846 118.922 111.731 119C110.516 119.085 109.897 118.813 109.352 119.817C108.632 121.143 107.984 121.298 107.195 122.578C106.562 123.607 104.528 120.438 103.4 120.857C101.931 121.403 100.134 121.418 98.5915 121.677C97.2102 121.909 95.6699 122.616 94.2321 122.24C92.4409 121.771 91.1184 119.877 89.4958 119.083C88.2424 118.47 86.5595 117.709 85.1144 117.811C83.4572 117.927 82.8417 118.751 81.8074 119.9C80.2047 121.681 78.5378 123.496 76.6047 124.966C74.789 126.347 73.0027 127.189 70.6678 127.128C69.121 127.087 69.1792 125.136 69.108 124.118C69.0406 123.154 69.4874 121.924 70.1564 121.181C72.0578 119.068 76.1386 120.14 78.184 121.263C81.2106 122.925 83.9717 124.712 86.5416 126.977C88.5469 128.745 89.759 118.829 92.6226 119.127C95.0469 119.379 98.4193 129.031 100.101 127.616C101.089 126.784 101.605 125.568 102.264 124.508C103.02 123.292 103.69 122.109 104.257 120.797C104.891 119.329 106.047 117.169 105.088 115.669C104.494 114.739 103.317 114.523 102.249 114.575C97.9078 114.784 93.3877 115.312 89.0956 114.575C87.755 114.345 86.6455 114.036 85.3897 113.542C84.3582 113.137 83.1237 112.985 82.2419 112.286C81.3645 111.59 81.0218 110.894 79.8553 110.976C78.588 111.065 77.042 112.108 75.9615 112.727C74.7651 113.412 73.9585 114.538 72.8481 115.306C71.2078 116.44 69.703 117.755 68.1793 119.041C66.4308 120.518 64.5504 121.07 62.2415 121.039C60.319 121.013 60.6451 123.662 58.8527 123.114C57.1631 122.598 53.5273 118.68 52.023 117.734C51.3595 117.316 50.4466 116.621 50.3562 115.778C50.2602 114.882 50.6646 114.893 51.4661 114.632C54.6246 113.605 57.8755 114.229 60.5128 116.07C62.7083 117.603 63.8556 119.989 64.6958 122.406C65.6049 125.02 67.6921 126.7 70.5817 126.2C71.8178 125.986 72.9782 124.802 73.9041 124.027C75.3243 122.838 76.5402 121.448 77.8968 120.196C79.2475 118.949 80.4959 117.7 81.5595 116.203C82.4317 114.975 83.4421 113.17 84.8318 112.401C86.5216 111.466 89.183 111.36 90.934 112.147C91.8568 112.562 92.6219 113.333 93.457 113.889C94.1619 114.359 95.2629 114.586 96.0969 114.72C98.5047 115.106 100.624 114.527 102.919 113.974C107.298 112.918 106.31 107.228 101.873 107.222C101.103 107.221 99.9034 107.167 99.2062 107.523C98.1489 108.062 97.2908 109.31 96.6554 110.247C95.2956 112.252 93.9513 114.617 93.3745 116.963C92.9211 118.808 92.7521 120.371 92.8836 122.252C92.9522 123.233 94.9915 123.952 95.8669 123.89C97.2004 123.796 98.5638 123.469 99.4944 122.435C100.294 121.546 99.9726 119.7 99.8978 118.63C99.7086 115.924 96.8592 115.619 94.7241 115.145C93.3154 114.831 91.5437 114.957 90.0858 115.06C87.6624 115.23 84.8908 116.952 82.8435 118.155C81.8916 118.714 80.5764 119.268 79.4241 119.093C77.5943 118.815 75.9578 116.776 74.9601 115.424C73.2578 113.118 69.5451 112.254 66.7622 112.449C66.3122 112.481 64.1294 112.42 64.1363 113.188C64.1449 114.144 64.432 115.258 64.9129 116.089C65.6145 117.302 66.652 119.09 68.2416 119.324C70.7779 119.697 72.7217 118.848 74.876 117.565C76.207 116.772 77.3988 115.69 78.1806 114.377C79.0211 112.966 79.8252 111.698 80.7683 110.357C82.3969 108.042 84.4655 107.217 87.2999 107.127C89.0106 107.074 91.4482 108.86 92.1962 110.293C92.4328 110.747 90.4606 111.659 90.118 111.722C86.6047 112.373 82.6455 110.159 80.4029 107.715C79.0238 106.212 77.4365 104.446 75.1807 104.295C73.8422 104.205 72.4556 104.592 71.2155 105.025C69.0111 105.793 66.6487 106.176 64.3404 106.534C63.6303 106.644 61.8359 107.004 61.4613 107.752C61.1288 108.416 60.2648 108.519 59.7304 108.982C58.999 109.616 58.7329 109.812 58.5196 110.812C57.762 114.362 60.8444 117.982 64.7854 117.001C66.8531 116.487 68.3682 113.444 69.4861 111.899C70.0909 111.063 70.9961 110.566 71.654 109.776C72.6496 108.58 73.0458 107.103 73.7637 105.759C74.7098 103.987 75.4278 103.159 77.6721 103.001C80.1274 102.828 80.3839 104.266 81.1403 106.257C81.7964 107.984 80.6881 109.205 79.3168 110.264C76.2398 112.641 72.0258 111.487 69.4532 108.997C67.835 107.43 66.6101 105.659 65.3517 103.825C64.7381 102.931 63.7795 102.013 63.6587 100.886C63.4768 99.1893 65.5292 99.0509 66.9658 98.95C69.2121 98.7922 70.9409 99.543 72.652 100.952C73.7756 101.877 74.8455 102.798 75.7703 103.914C76.6209 104.941 77.1571 106.193 78.06 107.181C78.9851 108.194 80.0721 108.84 81.4496 109.16C83.4943 109.635 85.6095 110.191 87.7004 110.424C89.4894 110.625 91.2559 110.929 93.054 111.013C94.1452 111.064 95.5451 111.261 96.2974 110.293C97.4117 108.859 98.1308 106.762 97.1908 105.14C96.4581 103.875 95.409 101.066 93.8116 100.574C91.5051 99.8641 90.4176 100.871 88.8154 102.362C87.9769 103.142 87.2461 103.928 86.4984 104.782C86.1266 105.207 85.616 105.768 85.0502 105.951C83.3633 106.498 80.2419 105.487 79.5866 103.79C78.9477 102.135 81.1437 101.007 82.4131 100.451C84.0141 99.7496 85.9587 99.6478 87.6822 99.5268C88.7697 99.4504 89.7976 99.4998 90.877 99.6307C91.3956 99.6936 92.0911 99.9263 92.6026 99.6943C93.2132 99.4173 93.34 98.026 93.448 97.5002C93.6955 96.2953 93.5599 95.2642 92.2979 94.728C90.5638 93.9912 87.6777 94.0273 85.8908 94.5726C84.6951 94.9374 83.4152 96.323 82.5103 97.1294C80.8888 98.5743 79.9992 100.545 78.3888 102.006C76.9863 103.279 75.2575 104.464 73.2897 104.602C70.5348 104.795 68.9603 103.016 67.9436 100.626C67.4945 99.57 66.2362 97.3727 67.768 96.5948C69.5869 95.6711 72.1343 96.9031 73.4896 98.0402C75.5163 99.7406 77.1998 101.862 79.869 102.662C82.0845 103.326 84.185 103.623 86.4901 103.295C87.891 103.095 91.4761 102.122 91.3541 100.377C91.2354 98.679 90.1457 98.019 88.6446 97.3348C87.06 96.6126 85.6234 95.8312 83.9327 95.4388C82.6053 95.1307 81.348 95.1688 79.9998 95.2635C78.931 95.3386 76.6917 96.778 75.9152 95.653C75.4786 95.0204 75.2872 94.877 75.2272 94.0183C75.1841 93.403 70.5767 94.3693 70.685 95.9179" stroke="white" stroke-width="2.5" stroke-linecap="round" stroke-linejoin="round"/>
</g>
<path d="M113.562 53.3367C113.219 52.8242 112.659 52.4537 111.979 52.2907L90.5835 48.1017V34.1466C90.5835 33.6262 90.2342 33.1505 90.5036 32.9087C90.3051 32.822 89.2705 32.7826 89.8749 32.7655C89.8717 32.7655 89.0466 32.7629 89.0418 32.7629L86.4582 32.2399C87.9538 31.7327 89.9622 31.7392 91.6975 32.3332C92.693 32.6551 93.6726 33.257 94.7078 33.8943C96.1193 34.7628 97.5784 35.659 99.4471 36.1019C105.252 37.2674 106.675 35.2513 110.719 33.133C111.243 32.8571 111.4 32.2815 111.067 31.8453C110.735 31.4103 110.04 31.2802 109.512 31.5562C105.813 33.4957 104.856 35.2674 100.025 34.2977C99.89 34.2648 99.7598 34.2123 99.6265 34.1715C105.315 34.9166 106.42 32.819 110.251 30.6193C110.762 30.3249 110.887 29.7441 110.535 29.321C110.178 28.8966 109.478 28.7914 108.968 29.0858C105.37 31.1528 104.555 33.098 99.6757 32.2964C98.2277 32.0073 96.9004 31.2596 95.6128 30.5356C94.4681 29.8917 93.2852 29.2242 92.0071 28.8641C89.0159 27.9601 85.5055 28.3687 83.4701 29.8575C82.816 30.3359 82.3254 30.9088 82.0015 31.5553L76.5827 30.7235C76.3239 30.6828 76.0556 30.7209 75.8254 30.8273L66.1505 36.0874C65.8854 36.2096 65.7123 36.4146 65.6314 36.6446C65.5059 36.843 65.4329 37.0637 65.4329 37.2937V43.689L45.771 39.9112C45.5234 39.8534 45.2773 39.8245 45.028 39.8245C43.8579 39.8245 42.8132 40.4749 42.4893 41.4066C42.2924 41.969 42.3734 42.5603 42.7131 43.0715C43.0545 43.5839 43.6165 43.9545 44.2961 44.1174L65.4361 48.2448V59.9149C65.4361 60.5522 65.9552 61.108 66.6999 61.2696L78.2085 64.104V44.6405H79.4294V64.171C79.4612 64.1645 79.493 64.1658 79.5263 64.1579C79.5866 64.1421 79.6374 64.1119 79.6914 64.0909C79.7851 64.058 79.8756 64.0318 79.9613 63.9831L89.8452 57.9202C90.3056 57.66 90.5819 57.2277 90.5819 56.7651V52.6561L110.503 56.4957C111.909 56.8294 113.389 56.1304 113.783 55.0016C113.981 54.4405 113.902 53.8492 113.562 53.3367ZM78.245 38.0769L68.6331 36.5276L69.9594 36.4593L76.5764 32.6197L81.5522 33.3424C81.5236 33.9179 81.5855 34.5224 81.7618 35.1557C81.7776 35.2162 81.8157 35.2661 81.8443 35.32C81.8523 35.6722 81.8872 36.0335 81.9634 36.4067L78.245 38.0769ZM84.0941 35.4514C84.0528 34.8088 84.156 34.2425 84.4227 33.7602L87.0202 34.1374L84.0941 35.4514Z" fill="white"/>
<path d="M81.2807 81.8499C79.8189 81.9186 81.6333 81.9896 80.3385 81.8866C82.4209 80.9431 83.8806 79.6164 83.8806 77.0424V64.1709C82.727 65.4075 80.8222 66.8159 78.1726 66.8456C75.523 66.8754 74.1147 66.2731 72.2677 65.0068V77.0424C72.2677 79.1951 73.2929 80.2103 74.8467 81.3255C75.0222 81.6598 74.8467 81.3255 75.463 82.2392C77.4513 84.4949 77.8263 84.3094 81.3748 84.1354C84.4418 83.9865 85.1329 83.8239 85.8948 85.5185C85.653 85.9536 86.2746 86.8085 80.377 86.5926C79.8141 86.572 79.3754 86.5559 79.1143 86.5559C78.6691 86.5559 78.0698 86.5445 77.3636 86.5284C70.1276 87.0585 70.9913 88.3692 69.6267 91.7155C68.7787 94.1209 69.1435 94.5318 69.1434 97.1283C68.9316 97.1283 69.7836 97.2068 69.8387 97.1283C71.3725 94.9426 69.3525 98.3003 70.9913 93.2993C72.8928 90.0259 70.9954 88.8208 77.3251 88.8208C78.0463 88.8345 78.6627 88.8482 79.1164 88.8482C79.3647 88.8482 79.7756 88.8643 80.3064 88.8826C82.4969 88.9613 88.7446 89.1573 87.7889 84.4903C86.4727 81.4675 85.0517 81.6621 81.2807 81.8499Z" fill="white"/>
<defs>
<filter id="filter0_d" x="39.0474" y="92.5806" width="83.5924" height="44.4268" filterUnits="userSpaceOnUse" color-interpolation-filters="sRGB">
<feFlood flood-opacity="0" result="BackgroundImageFix"/>
<feColorMatrix in="SourceAlpha" type="matrix" values="0 0 0 0 0 0 0 0 0 0 0 0 0 0 0 0 0 0 127 0"/>
<feOffset dy="4"/>
<feGaussianBlur stdDeviation="2"/>
<feColorMatrix type="matrix" values="0 0 0 0 0 0 0 0 0 0 0 0 0 0 0 0 0 0 0.1 0"/>
<feBlend mode="normal" in2="BackgroundImageFix" result="effect1_dropShadow"/>
<feBlend mode="normal" in="SourceGraphic" in2="effect1_dropShadow" result="shape"/>
</filter>
</defs>
</svg>
