<svg width="40" height="40" viewBox="0 0 40 40" fill="none" xmlns="http://www.w3.org/2000/svg">
<path d="M21.7604 13.1994C21.5059 12.9335 21.0931 12.9335 20.8383 13.1994C20.5836 13.465 20.5836 13.8962 20.8383 14.162L25.7769 19.3176H12.6551C12.2939 19.3176 12.001 19.6235 12.001 20.0005C12.001 20.3778 12.2939 20.6834 12.6551 20.6834H25.7703L20.8317 25.8391C20.7092 25.9665 20.6404 26.14 20.6404 26.3205C20.6404 26.5012 20.7092 26.6742 20.8317 26.8019C20.9542 26.9309 21.122 27.0023 21.2961 26.9999C21.4697 26.9991 21.6362 26.9281 21.7604 26.8019L27.811 20.4856C27.9342 20.3569 28.0028 20.1821 28.0009 20.0005C27.9997 19.8194 27.9317 19.6462 27.811 19.5159L21.7604 13.1994Z" fill="#7354FF"/>
<path fill-rule="evenodd" clip-rule="evenodd" d="M1.52241 12.3459C4.61828 4.8715 11.9123 -0.00145613 20.0023 3.26395e-07L20.0023 5.8796e-05C25.3094 -0.0127634 30.4012 2.09767 34.1433 5.86107C41.953 13.6711 41.953 26.3331 34.1433 34.1425C26.3336 41.9525 13.6716 41.9525 5.86157 34.1425C0.139252 28.4237 -1.57287 19.8205 1.52241 12.3459ZM1.86133 20.0018C1.86133 30.0027 10.0015 38.1432 20.0023 38.1432C30.0032 38.1432 38.1436 30.0027 38.1436 20.0018C38.1436 10.001 30.0032 1.86084 20.0023 1.86084C10.0015 1.86084 1.86133 10.001 1.86133 20.0018Z" fill="#7354FF"/>
</svg>
