<svg id="Layer_1" data-name="Layer 1" xmlns="http://www.w3.org/2000/svg" viewBox="0 0 162.63 162.63"><defs><style>.cls-1{fill:#e4e1f4;}.cls-2{fill:#b7a5ef;}.cls-3{fill:#8056e9;}.cls-4{fill:#fff;}.cls-5{fill:none;stroke:#8056e9;stroke-miterlimit:10;stroke-width:2px;}</style></defs><title>TSDBenefitIcons</title><circle class="cls-1" cx="81.32" cy="81.32" r="81.32"/><circle class="cls-2" cx="50.32" cy="85.66" r="10.33"/><path class="cls-2" d="M69.43,123.69c0-14.57-8.56-26.38-19.11-26.38s-19.11,11.81-19.11,26.38c0,.6,0,1.19,0,1.77H69.38C69.41,124.88,69.43,124.29,69.43,123.69Z"/><circle class="cls-2" cx="112.32" cy="85.66" r="10.33"/><path class="cls-2" d="M131.43,123.69c0-14.57-8.56-26.38-19.11-26.38s-19.11,11.81-19.11,26.38c0,.6,0,1.19.05,1.77h38.12C131.41,124.88,131.43,124.29,131.43,123.69Z"/><circle class="cls-3" cx="81.28" cy="79.44" r="11.93"/><path class="cls-3" d="M103.35,123.37c0-16.83-9.88-30.47-22.07-30.47S59.2,106.54,59.2,123.37c0,.69,0,1.37.06,2h44C103.33,124.74,103.35,124.06,103.35,123.37Z"/><rect class="cls-4" x="36.19" y="27.85" width="42.27" height="23.45" rx="8.22"/><path class="cls-4" d="M61.8,51.3,70,58.71a.55.55,0,0,0,.92-.45l-.49-7"/><rect class="cls-4" x="84.1" y="35.8" width="42.27" height="23.45" rx="8.22" transform="translate(210.46 95.05) rotate(180)"/><path class="cls-4" d="M100.76,59.25l-8.23,7.41a.56.56,0,0,1-.93-.45l.5-7"/><path class="cls-3" d="M54.88,42.7a5.48,5.48,0,0,1,.18-1.45,3.52,3.52,0,0,1,.6-1.21,3.77,3.77,0,0,1,1.12-1l.91-.51a7.29,7.29,0,0,0,1-.66,3.7,3.7,0,0,0,.81-.91,2.25,2.25,0,0,0,.33-1.22,2.07,2.07,0,0,0-.37-1.26,2.28,2.28,0,0,0-.92-.77,3,3,0,0,0-1.23-.26,2.86,2.86,0,0,0-1.3.3,3.74,3.74,0,0,0-1,.75,5.8,5.8,0,0,0-.73,1l-1.65-1.12a4.75,4.75,0,0,1,1.15-1.6,5.08,5.08,0,0,1,1.67-1,5.85,5.85,0,0,1,2-.34,5.66,5.66,0,0,1,1.68.26,4.36,4.36,0,0,1,1.5.81,4.06,4.06,0,0,1,1.07,1.37,4.6,4.6,0,0,1,.4,2,4.37,4.37,0,0,1-.2,1.38,3.22,3.22,0,0,1-.56,1,4.62,4.62,0,0,1-.84.81,10.68,10.68,0,0,1-1.06.66l-1.12.7a3.15,3.15,0,0,0-.91.87A2.4,2.4,0,0,0,57,42.7Zm.07,5V44.87H57v2.88Z"/><polyline class="cls-5" points="98.14 46.87 103.92 52.65 114.32 42.39"/></svg>