<svg id="Layer_1" data-name="Layer 1" xmlns="http://www.w3.org/2000/svg" viewBox="0 0 236.12 204.93"><defs><style>.cls-1{fill:#e4e1f4;}.cls-2{fill:#b7a5ef;}.cls-3{fill:#8056e9;}</style></defs><title>TSDBenefitIcon</title><circle class="cls-1" cx="120.55" cy="104.99" r="81.32"/><rect class="cls-2" x="78.44" y="128.88" width="84.53" height="21.61" rx="2.19"/><rect class="cls-2" x="78.44" y="60.59" width="84.53" height="7.68" rx="2.59"/><path class="cls-3" d="M105.77,58.82V73.69a2.88,2.88,0,0,0,.67,1.82l6.72,8.15a2.16,2.16,0,0,0,3.25,0l6.68-8.11a3,3,0,0,0,.7-1.9V58.84a2.08,2.08,0,0,0-2.21-1.93H108A2.06,2.06,0,0,0,105.77,58.82Z"/><rect class="cls-3" x="97.74" y="85.9" width="45.92" height="42.98"/><polygon class="cls-1" points="131.42 106.94 136.84 119.1 130.17 130.31 139.76 140.52 137.56 150.5 127.46 150.5 131.84 143.44 124.12 128.72 133.09 118.62 131.42 106.94"/></svg>